<svg width="132" height="113" viewBox="0 0 132 113" fill="none" xmlns="http://www.w3.org/2000/svg">
<path d="M127.017 6.16364H4.09732C2.96441 6.16364 2.04866 7.08202 2.04866 8.21818V80.1273C2.04866 81.2634 2.96441 82.1818 4.09732 82.1818C5.23024 82.1818 6.14599 81.2634 6.14599 80.1273V10.2727H124.969V80.1273C124.969 81.2634 125.884 82.1818 127.017 82.1818C128.15 82.1818 129.066 81.2634 129.066 80.1273V8.21818C129.066 7.08202 128.15 6.16364 127.017 6.16364Z" fill="black"/>
<path d="M22.5353 0C21.4024 0 20.4866 0.918382 20.4866 2.05455V8.21818C20.4866 9.35435 21.4024 10.2727 22.5353 10.2727C23.6682 10.2727 24.584 9.35435 24.584 8.21818V2.05455C24.584 0.918382 23.6682 0 22.5353 0Z" fill="black"/>
<path d="M28.6813 0H16.3893C15.2564 0 14.3407 0.918382 14.3407 2.05455C14.3407 3.19071 15.2564 4.10909 16.3893 4.10909H28.6813C29.8142 4.10909 30.73 3.19071 30.73 2.05455C30.73 0.918382 29.8142 0 28.6813 0Z" fill="black"/>
<path d="M51.2166 0C50.0837 0 49.1679 0.918382 49.1679 2.05455V8.21818C49.1679 9.35435 50.0837 10.2727 51.2166 10.2727C52.3495 10.2727 53.2653 9.35435 53.2653 8.21818V2.05455C53.2653 0.918382 52.3495 0 51.2166 0Z" fill="black"/>
<path d="M57.3626 0H45.0706C43.9377 0 43.0219 0.918382 43.0219 2.05455C43.0219 3.19071 43.9377 4.10909 45.0706 4.10909H57.3626C58.4955 4.10909 59.4113 3.19071 59.4113 2.05455C59.4113 0.918382 58.4955 0 57.3626 0Z" fill="black"/>
<path d="M79.8979 0C78.765 0 77.8492 0.918382 77.8492 2.05455V8.21818C77.8492 9.35435 78.765 10.2727 79.8979 10.2727C81.0308 10.2727 81.9466 9.35435 81.9466 8.21818V2.05455C81.9466 0.918382 81.0308 0 79.8979 0Z" fill="black"/>
<path d="M86.0439 0H73.7519C72.619 0 71.7032 0.918382 71.7032 2.05455C71.7032 3.19071 72.619 4.10909 73.7519 4.10909H86.0439C87.1768 4.10909 88.0926 3.19071 88.0926 2.05455C88.0926 0.918382 87.1768 0 86.0439 0Z" fill="black"/>
<path d="M108.579 0C107.446 0 106.531 0.918382 106.531 2.05455V8.21818C106.531 9.35435 107.446 10.2727 108.579 10.2727C109.712 10.2727 110.628 9.35435 110.628 8.21818V2.05455C110.628 0.918382 109.712 0 108.579 0Z" fill="black"/>
<path d="M114.725 0H102.433C101.3 0 100.385 0.918382 100.385 2.05455C100.385 3.19071 101.3 4.10909 102.433 4.10909H114.725C115.858 4.10909 116.774 3.19071 116.774 2.05455C116.774 0.918382 115.858 0 114.725 0Z" fill="black"/>
<path d="M129.066 78.0728H2.04866C0.915753 78.0728 0 78.9911 0 80.1273C0 81.2635 0.915753 82.1818 2.04866 82.1818H129.066C130.199 82.1818 131.115 81.2635 131.115 80.1273C131.115 78.9911 130.199 78.0728 129.066 78.0728Z" fill="black"/>
<path d="M59.4113 78.0728C58.2784 78.0728 57.3626 78.9911 57.3626 80.1273V110.945C57.3626 112.082 58.2784 113 59.4113 113C60.5442 113 61.4599 112.082 61.4599 110.945V80.1273C61.4599 78.9911 60.5442 78.0728 59.4113 78.0728Z" fill="black"/>
<path d="M71.7032 78.0728C70.5703 78.0728 69.6546 78.9911 69.6546 80.1273V110.945C69.6546 112.082 70.5703 113 71.7032 113C72.8361 113 73.7519 112.082 73.7519 110.945V80.1273C73.7519 78.9911 72.8361 78.0728 71.7032 78.0728Z" fill="black"/>
<path d="M73.7519 86.2909H71.7032C70.5703 86.2909 69.6546 87.2093 69.6546 88.3454C69.6546 89.4816 70.5703 90.4 71.7032 90.4H73.7519C74.8848 90.4 75.8006 89.4816 75.8006 88.3454C75.8006 87.2093 74.8848 86.2909 73.7519 86.2909Z" fill="black"/>
<path d="M73.7519 94.5091H71.7032C70.5703 94.5091 69.6546 95.4275 69.6546 96.5636C69.6546 97.6998 70.5703 98.6182 71.7032 98.6182H73.7519C74.8848 98.6182 75.8006 97.6998 75.8006 96.5636C75.8006 95.4275 74.8848 94.5091 73.7519 94.5091Z" fill="black"/>
<path d="M73.7519 102.727H71.7032C70.5703 102.727 69.6546 103.646 69.6546 104.782C69.6546 105.918 70.5703 106.836 71.7032 106.836H73.7519C74.8848 106.836 75.8006 105.918 75.8006 104.782C75.8006 103.646 74.8848 102.727 73.7519 102.727Z" fill="black"/>
<path d="M20.4866 38.8514C19.3537 38.8514 18.438 39.7698 18.438 40.906V65.7454C18.438 66.8816 19.3537 67.8 20.4866 67.8C21.6195 67.8 22.5353 66.8816 22.5353 65.7454V40.906C22.5353 39.7698 21.6195 38.8514 20.4866 38.8514Z" fill="black"/>
<path d="M57.3626 38.8494C56.2297 38.8494 55.3139 39.7678 55.3139 40.9039V65.7454C55.3139 66.8816 56.2297 67.8 57.3626 67.8C58.4955 67.8 59.4113 66.8816 59.4113 65.7454V40.9039C59.4113 39.7678 58.4955 38.8494 57.3626 38.8494Z" fill="black"/>
<path d="M40.7213 21.6179C40.1805 20.6235 38.9308 20.2537 37.9433 20.7982L15.408 33.1254C14.4144 33.6678 14.0477 34.917 14.5906 35.9114C14.9634 36.5956 15.6661 36.9818 16.3914 36.9818C16.7232 36.9818 17.0592 36.9017 17.3686 36.7312L39.9039 24.4039C40.8975 23.8615 41.2621 22.6123 40.7213 21.6179Z" fill="black"/>
<path d="M62.4392 33.1254L39.9039 20.7982C38.9164 20.2537 37.6688 20.6235 37.1259 21.6179C36.583 22.6123 36.9497 23.8594 37.9433 24.4039L60.4786 36.7312C60.79 36.9017 61.126 36.9818 61.4579 36.9818C62.1852 36.9818 62.8858 36.5956 63.2566 35.9114C63.7995 34.917 63.4328 33.6699 62.4392 33.1254Z" fill="black"/>
<path d="M40.7213 29.8361C40.1805 28.8397 38.9308 28.474 37.9433 29.0164L15.408 41.3436C14.4144 41.886 14.0477 43.1352 14.5906 44.1296C14.9634 44.8138 15.6661 45.2 16.3914 45.2C16.7232 45.2 17.0592 45.1199 17.3686 44.9494L39.9039 32.6221C40.8975 32.0797 41.2642 30.8305 40.7213 29.8361Z" fill="black"/>
<path d="M62.4392 41.3436L39.9039 29.0164C38.9164 28.474 37.6688 28.8397 37.1259 29.8361C36.583 30.8305 36.9497 32.0776 37.9433 32.6221L60.4786 44.9494C60.79 45.1199 61.126 45.2 61.4579 45.2C62.1852 45.2 62.8858 44.8138 63.2566 44.1296C63.7995 43.1352 63.4328 41.8881 62.4392 41.3436Z" fill="black"/>
<path d="M16.3893 32.8727C15.2564 32.8727 14.3407 33.7911 14.3407 34.9273V43.1454C14.3407 44.2816 15.2564 45.2 16.3893 45.2C17.5222 45.2 18.438 44.2816 18.438 43.1454V34.9273C18.438 33.7911 17.5222 32.8727 16.3893 32.8727Z" fill="black"/>
<path d="M61.4599 32.8727C60.327 32.8727 59.4113 33.7911 59.4113 34.9273V43.1454C59.4113 44.2816 60.327 45.2 61.4599 45.2C62.5928 45.2 63.5086 44.2816 63.5086 43.1454V34.9273C63.5086 33.7911 62.5928 32.8727 61.4599 32.8727Z" fill="black"/>
<path d="M43.0219 47.2545H34.8273C33.6944 47.2545 32.7786 48.1729 32.7786 49.3091V65.7454C32.7786 66.8816 33.6944 67.8 34.8273 67.8H43.0219C44.1549 67.8 45.0706 66.8816 45.0706 65.7454V49.3091C45.0706 48.1729 44.1549 47.2545 43.0219 47.2545ZM40.9733 63.6909H36.876V51.3636H40.9733V63.6909Z" fill="black"/>
<path d="M59.4113 63.6909H18.438C17.3051 63.6909 16.3893 64.6093 16.3893 65.7455C16.3893 66.8816 17.3051 67.8 18.438 67.8H59.4113C60.5442 67.8 61.4599 66.8816 61.4599 65.7455C61.4599 64.6093 60.5442 63.6909 59.4113 63.6909Z" fill="black"/>
<path d="M112.677 28.7636H75.8006C74.6676 28.7636 73.7519 29.682 73.7519 30.8182C73.7519 31.9544 74.6676 32.8727 75.8006 32.8727H112.677C113.809 32.8727 114.725 31.9544 114.725 30.8182C114.725 29.682 113.809 28.7636 112.677 28.7636Z" fill="black"/>
<path d="M112.677 39.0363H75.8006C74.6676 39.0363 73.7519 39.9547 73.7519 41.0909C73.7519 42.2271 74.6676 43.1454 75.8006 43.1454H112.677C113.809 43.1454 114.725 42.2271 114.725 41.0909C114.725 39.9547 113.809 39.0363 112.677 39.0363Z" fill="black"/>
<path d="M112.677 49.3091H75.8006C74.6676 49.3091 73.7519 50.2275 73.7519 51.3636C73.7519 52.4998 74.6676 53.4182 75.8006 53.4182H112.677C113.809 53.4182 114.725 52.4998 114.725 51.3636C114.725 50.2275 113.809 49.3091 112.677 49.3091Z" fill="black"/>
<path d="M94.2385 59.5818H75.8006C74.6676 59.5818 73.7519 60.5002 73.7519 61.6364C73.7519 62.7726 74.6676 63.6909 75.8006 63.6909H94.2385C95.3714 63.6909 96.2872 62.7726 96.2872 61.6364C96.2872 60.5002 95.3714 59.5818 94.2385 59.5818Z" fill="black"/>
</svg>
