<svg width="115" height="114" viewBox="0 0 115 114" fill="none" xmlns="http://www.w3.org/2000/svg">
<path d="M75.6559 85.3516H66.4551C65.476 85.3516 64.6854 84.5593 64.6854 83.5781C64.6854 82.597 65.476 81.8046 66.4551 81.8046H75.6559C76.6341 81.8046 77.4256 82.597 77.4256 83.5781C77.4256 84.5593 76.6341 85.3516 75.6559 85.3516Z" fill="black"/>
<path d="M23.9831 97.7661C23.0041 97.7661 22.2135 96.9738 22.2135 95.9926C22.2135 88.1695 28.5646 81.8046 36.3708 81.8046C37.3498 81.8046 38.1405 82.597 38.1405 83.5781C38.1405 84.5593 37.3498 85.3516 36.3708 85.3516C30.5148 85.3516 25.7528 90.124 25.7528 95.9926C25.7528 96.9738 24.9622 97.7661 23.9831 97.7661Z" fill="black"/>
<path d="M45.2191 85.3516H36.3708C35.3918 85.3516 34.6011 84.5593 34.6011 83.5781C34.6011 82.597 35.3918 81.8046 36.3708 81.8046H45.2191C46.1981 81.8046 46.9888 82.597 46.9888 83.5781C46.9888 84.5593 46.1981 85.3516 45.2191 85.3516Z" fill="black"/>
<path d="M23.9831 99.5448C23.0041 99.5448 22.2135 98.7525 22.2135 97.7713V96.2498C22.2135 95.2687 23.0041 94.4763 23.9831 94.4763C24.9622 94.4763 25.7528 95.2687 25.7528 96.2498V97.7713C25.7528 98.7525 24.9622 99.5448 23.9831 99.5448Z" fill="black"/>
<path d="M45.2191 85.3516C44.2401 85.3516 43.4494 84.5593 43.4494 83.5781V75.8667C43.4494 74.8864 44.2401 74.0932 45.2191 74.0932C46.1981 74.0932 46.9888 74.8864 46.9888 75.8667V83.5781C46.9888 84.5593 46.1981 85.3516 45.2191 85.3516Z" fill="black"/>
<path d="M66.4551 85.3516C65.476 85.3516 64.6854 84.5593 64.6854 83.5781V75.8667C64.6854 74.8864 65.476 74.0932 66.4551 74.0932C67.4341 74.0932 68.2247 74.8864 68.2247 75.8667V83.5781C68.2247 84.5593 67.4341 85.3516 66.4551 85.3516Z" fill="black"/>
<path d="M55.8371 80.0312C41.2002 80.0312 29.2921 68.0973 29.2921 53.4286C29.2921 52.4501 30.0828 51.6551 31.0618 51.6551C32.0408 51.6551 32.8315 52.4501 32.8315 53.4286C32.8315 66.141 43.1522 76.4842 55.8371 76.4842C68.522 76.4842 78.8427 66.141 78.8427 53.4286C78.8427 52.4501 79.6333 51.6551 80.6124 51.6551C81.5914 51.6551 82.382 52.4501 82.382 53.4286C82.382 68.0973 70.4739 80.0312 55.8371 80.0312Z" fill="black"/>
<path d="M31.0618 55.1614C30.0828 55.1614 29.2921 54.3664 29.2921 53.3879V35.6936C29.2921 34.715 30.0828 33.9201 31.0618 33.9201C32.0408 33.9201 32.8315 34.715 32.8315 35.6936V53.3879C32.8315 54.3664 32.0408 55.1614 31.0618 55.1614Z" fill="black"/>
<path d="M80.6124 55.2038C79.6333 55.2038 78.8427 54.4098 78.8427 53.4303V33.9218C78.8427 32.9433 79.6333 32.1483 80.6124 32.1483C81.5914 32.1483 82.382 32.9433 82.382 33.9218V53.4303C82.382 54.4098 81.5914 55.2038 80.6124 55.2038Z" fill="black"/>
<path d="M80.6124 35.6936C79.6333 35.6936 78.8427 34.8986 78.8427 33.9201C78.8427 29.0308 74.873 25.0526 69.9944 25.0526C69.0154 25.0526 68.2247 24.2576 68.2247 23.2791C68.2247 22.3005 69.0154 21.5056 69.9944 21.5056C76.8233 21.5056 82.382 27.0746 82.382 33.9201C82.382 34.8986 81.5914 35.6936 80.6124 35.6936Z" fill="black"/>
<path d="M69.9944 25.0525C69.0154 25.0525 68.2247 24.2576 68.2247 23.279V14.4115C68.2247 13.433 69.0154 12.638 69.9944 12.638C70.9734 12.638 71.764 13.433 71.764 14.4115V23.279C71.764 24.2576 70.9734 25.0525 69.9944 25.0525Z" fill="black"/>
<path d="M31.0618 37.4671C30.0828 37.4671 29.2921 36.6721 29.2921 35.6936C29.2921 22.9812 39.6129 12.638 52.2977 12.638C53.2768 12.638 54.0674 13.433 54.0674 14.4115C54.0674 15.3901 53.2768 16.185 52.2977 16.185C41.5648 16.185 32.8315 24.9374 32.8315 35.6936C32.8315 36.6721 32.0408 37.4671 31.0618 37.4671Z" fill="black"/>
<path d="M80.6124 46.3346C80.1596 46.3346 79.7059 46.1605 79.3612 45.815L72.2825 38.721C71.5904 38.0273 71.5904 36.9068 72.2825 36.2131C72.9746 35.5195 74.0928 35.5195 74.7849 36.2131L81.8636 43.3071C82.5557 44.0008 82.5557 45.1213 81.8636 45.815C81.5188 46.1605 81.0651 46.3346 80.6124 46.3346Z" fill="black"/>
<path d="M55.8371 42.7876C45.9709 42.7876 37.7758 39.2423 37.431 39.0916C36.5376 38.6994 36.1297 37.655 36.5194 36.7579C36.9108 35.8581 37.9564 35.4503 38.8481 35.8408C38.9259 35.8763 46.7373 39.2406 55.8371 39.2406C64.9671 39.2406 72.7482 35.8763 72.826 35.8425C73.7212 35.4503 74.765 35.8607 75.1548 36.7561C75.5479 37.6533 75.1392 38.6994 74.2414 39.0916C73.8984 39.2423 65.6998 42.7876 55.8371 42.7876Z" fill="black"/>
<path d="M31.0618 46.313C30.6073 46.313 30.1536 46.1398 29.8089 45.7917C29.1185 45.0989 29.1185 43.9757 29.8123 43.2838L36.891 36.2115C37.5848 35.5195 38.703 35.5213 39.3934 36.2149C40.0838 36.9086 40.0838 38.0309 39.3899 38.7228L32.3113 45.7951C31.9665 46.1415 31.5146 46.313 31.0618 46.313Z" fill="black"/>
<path d="M50.5264 88.8987C50.1902 88.8987 49.8489 88.8008 49.5456 88.6008L44.2366 85.0538C43.4226 84.5091 43.2032 83.4093 43.7467 82.5935C44.2885 81.7795 45.3833 81.5596 46.2016 82.1025L51.5106 85.6495C52.3245 86.1942 52.544 87.294 52.0005 88.1098C51.6609 88.6224 51.0975 88.8987 50.5264 88.8987Z" fill="black"/>
<path d="M50.5281 88.8987C49.7867 88.8987 49.0963 88.4284 48.8509 87.6854C48.5407 86.7563 49.0418 85.7509 49.969 85.4417L55.278 83.6682C56.2104 83.3565 57.2084 83.8605 57.5169 84.7896C57.8262 85.7188 57.325 86.7242 56.3979 87.0334L51.0889 88.8069C50.9014 88.8684 50.7121 88.8987 50.5281 88.8987Z" fill="black"/>
<path d="M61.1478 88.8987C60.5766 88.8987 60.0132 88.6224 59.6737 88.1098C59.1301 87.294 59.3496 86.1942 60.1636 85.6495L65.4726 82.1025C66.2866 81.5596 67.3857 81.7795 67.9275 82.5935C68.471 83.4093 68.2515 84.5091 67.4375 85.0538L62.1285 88.6008C61.8252 88.8008 61.4839 88.8987 61.1478 88.8987Z" fill="black"/>
<path d="M61.1461 88.8987C60.962 88.8987 60.7728 88.8684 60.587 88.8069L55.278 87.0334C54.3526 86.7242 53.8497 85.7206 54.1599 84.7897C54.4692 83.8622 55.4621 83.3565 56.3979 83.6682L61.7069 85.4417C62.6323 85.7509 63.1352 86.7545 62.8259 87.6855C62.5779 88.4285 61.8875 88.8987 61.1461 88.8987Z" fill="black"/>
<path d="M55.8898 95.9927C54.9116 95.9927 54.1115 95.2003 54.1115 94.2192C54.1115 93.238 54.8935 92.4457 55.8708 92.4457H55.8898C56.8671 92.4457 57.6594 93.238 57.6594 94.2192C57.6594 95.2003 56.8671 95.9927 55.8898 95.9927Z" fill="black"/>
<path d="M55.8898 103.087C54.9116 103.087 54.1115 102.294 54.1115 101.313C54.1115 100.332 54.8935 99.5396 55.8708 99.5396H55.8898C56.8671 99.5396 57.6594 100.332 57.6594 101.313C57.6594 102.294 56.8671 103.087 55.8898 103.087Z" fill="black"/>
<path d="M69.9944 16.185H52.2978C51.3187 16.185 50.5281 15.3901 50.5281 14.4115C50.5281 13.433 51.3187 12.638 52.2978 12.638H69.9944C70.9734 12.638 71.764 13.433 71.764 14.4115C71.764 15.3901 70.9734 16.185 69.9944 16.185Z" fill="black"/>
<path d="M55.8371 110.181C25.5869 110.181 0.977539 85.5188 0.977539 55.2021C0.977539 24.888 25.5869 0.223541 55.8371 0.223541C86.0838 0.223541 110.693 24.8854 110.697 55.2021C110.697 62.9136 109.133 70.3765 106.05 77.3796C105.655 78.2776 104.611 78.6837 103.717 78.288C102.821 77.8922 102.418 76.8461 102.811 75.9507C105.695 69.3971 107.157 62.4165 107.157 55.2021C107.154 26.8417 84.1318 3.77055 55.8371 3.77055C27.5406 3.77055 4.51687 26.8417 4.51687 55.2021C4.51687 83.5608 27.5406 106.634 55.8371 106.634C63.0359 106.634 69.9996 105.17 76.5313 102.281C77.4273 101.89 78.4712 102.294 78.8643 103.19C79.2566 104.085 78.8531 105.133 77.9579 105.527C70.9769 108.615 63.5336 110.181 55.8371 110.181Z" fill="black"/>
<path d="M93 113.729C87.3281 113.729 81.9949 111.516 77.9864 107.495C73.9727 103.477 71.764 98.1316 71.764 92.4457C71.764 86.7614 73.9744 81.4158 77.9864 77.3995C81.9949 73.3788 87.3281 71.1636 93 71.1636C98.6719 71.1636 104.006 73.3788 108.014 77.3995C112.026 81.4158 114.236 86.7614 114.236 92.4457C114.236 98.1316 112.027 103.477 108.014 107.495C104.006 111.516 98.6719 113.729 93 113.729ZM93 74.7106C88.2734 74.7106 83.8294 76.5552 80.4888 79.9073C77.1439 83.2551 75.3034 87.7088 75.3034 92.4457C75.3034 97.1825 77.1439 101.638 80.4888 104.987C83.8311 108.338 88.2734 110.182 93 110.182C97.7266 110.182 102.171 108.338 105.511 104.987C108.856 101.638 110.697 97.1825 110.697 92.4457C110.697 87.7088 108.856 83.2551 105.511 79.9073C102.171 76.5552 97.7266 74.7106 93 74.7106Z" fill="black"/>
<path d="M101.848 94.2191H84.1517C83.1727 94.2191 82.382 93.4268 82.382 92.4456C82.382 91.4645 83.1727 90.6721 84.1517 90.6721H101.848C102.827 90.6721 103.618 91.4645 103.618 92.4456C103.618 93.4268 102.827 94.2191 101.848 94.2191Z" fill="black"/>
<path d="M93 103.087C92.021 103.087 91.2303 102.294 91.2303 101.313V83.5781C91.2303 82.597 92.021 81.8046 93 81.8046C93.979 81.8046 94.7697 82.597 94.7697 83.5781V101.313C94.7697 102.294 93.979 103.087 93 103.087Z" fill="black"/>
</svg>
