<svg width="113" height="113" viewBox="0 0 113 113" fill="none" xmlns="http://www.w3.org/2000/svg">
<path d="M77.6875 49.4375C73.7872 49.4375 70.625 52.5997 70.625 56.5C70.625 60.4003 73.7872 63.5625 77.6875 63.5625C81.5878 63.5625 84.75 60.4003 84.75 56.5C84.75 52.5997 81.5878 49.4375 77.6875 49.4375ZM77.6875 58.8536C76.3909 58.8536 75.3357 57.7984 75.3357 56.5C75.3357 55.2016 76.3909 54.1464 77.6875 54.1464C78.9841 54.1464 80.0393 55.2016 80.0393 56.5C80.0393 57.7984 78.9841 58.8536 77.6875 58.8536Z" fill="black"/>
<path d="M37.6661 51.7911C37.0161 51.7911 36.4282 52.0548 36.0022 52.4808L31.2933 57.1897C30.8673 57.6157 30.6036 58.2036 30.6036 58.8536C30.6036 60.1553 31.6588 61.2107 32.9589 61.2107C33.6089 61.2107 34.1968 60.9452 34.6228 60.521L39.3317 55.8103C39.7577 55.3843 40.0214 54.7964 40.0214 54.1464C40.0214 52.8463 38.9662 51.7911 37.6661 51.7911Z" fill="black"/>
<path d="M47.0839 51.7911C46.434 51.7911 45.8442 52.0548 45.4183 52.4808L40.7111 57.1897C40.2852 57.6157 40.0214 58.2036 40.0214 58.8536C40.0214 60.1553 41.0748 61.2107 42.375 61.2107C43.025 61.2107 43.6129 60.9452 44.0389 60.521L48.7478 55.8103C49.1738 55.3843 49.4375 54.7964 49.4375 54.1464C49.4375 52.8463 48.3841 51.7911 47.0839 51.7911Z" fill="black"/>
<path d="M56.5 51.7911C55.85 51.7911 55.2621 52.0548 54.8361 52.4808L50.1272 57.1897C49.7012 57.6157 49.4375 58.2036 49.4375 58.8536C49.4375 60.1553 50.4909 61.2107 51.7911 61.2107C52.441 61.2107 53.0308 60.9452 53.4567 60.521L58.1639 55.8103C58.5898 55.3843 58.8536 54.7964 58.8536 54.1464C58.8536 52.8463 57.8002 51.7911 56.5 51.7911Z" fill="black"/>
<path d="M91.8125 94.1643V70.625C97.6404 70.625 113 63.5625 113 35.3125C113 15.8096 97.1921 0 77.6875 0C67.9902 0 59.2071 3.91064 52.824 10.2386C48.7288 6.78839 43.4406 4.70892 37.6661 4.70892C24.6653 4.70892 14.125 15.2493 14.125 28.25C14.125 30.0242 14.3232 31.7537 14.6957 33.4158C6.28496 35.3021 0 42.8129 0 51.7911C0 62.1935 8.43152 70.625 18.8339 70.625H21.1875V94.1643H49.4375V98.875H14.125V113H98.875V98.875H63.5625V94.1643H91.8125ZM87.1018 65.9143H25.8964V47.0839H87.1018V65.9143ZM29.676 42.375L36.7385 37.6661H76.2598L83.3223 42.375H29.676ZM21.1875 65.9143H18.8339C11.0455 65.9143 4.70892 59.5795 4.70892 51.7911C4.70892 48.5167 5.79522 45.4459 7.85218 42.9078C9.85219 40.4386 12.6489 38.699 15.7251 38.0093L20.3168 36.9799L19.2892 32.3866C18.9875 31.0348 18.8341 29.6433 18.8341 28.2502C18.8341 23.2189 20.7929 18.4909 24.35 14.9339C27.907 11.375 32.6367 9.4163 37.6663 9.4163C42.0993 9.4163 46.4048 10.987 49.7913 13.8407L53.0829 16.6132L56.14 13.5821C61.911 7.85924 69.5632 4.70914 77.6879 4.70914C81.8193 4.70914 85.8299 5.5178 89.5991 7.11105C93.2407 8.65245 96.5168 10.8595 99.3307 13.6719C102.141 16.4841 104.348 19.7584 105.89 23.4018C107.482 27.1705 108.289 31.1794 108.289 35.3125C108.289 41.375 107.534 46.7443 106.041 51.272C104.827 54.9326 103.144 58.0345 101.027 60.4863C99.3989 62.376 97.4919 63.8832 95.5159 64.8488C93.9021 65.6384 92.5468 65.9143 91.8123 65.9143V42.375L77.6873 32.9589H35.3125L21.1875 42.375V65.9143ZM42.375 108.289H18.8339V103.586H42.375V108.289ZM70.625 103.586H94.1643V108.289H70.625V103.586ZM65.9143 103.586V108.289H47.0839V103.586H54.1464V94.1643H58.8536V103.586H65.9143ZM25.8964 89.4607V70.625H87.1018V89.4607H25.8964Z" fill="black"/>
<path d="M77.6875 72.9768C73.7872 72.9768 70.625 76.1426 70.625 80.0393C70.625 83.9431 73.7872 87.1018 77.6875 87.1018C81.5878 87.1018 84.75 83.9431 84.75 80.0393C84.75 76.1426 81.5878 72.9768 77.6875 72.9768ZM77.6875 82.3982C76.3909 82.3982 75.3357 81.3395 75.3357 80.0393C75.3357 78.7427 76.3909 77.6875 77.6875 77.6875C78.9841 77.6875 80.0393 78.7427 80.0393 80.0393C80.0393 81.3395 78.9841 82.3982 77.6875 82.3982Z" fill="black"/>
<path d="M37.6661 75.3357C37.0161 75.3357 36.4282 75.5979 36.0022 76.0254L31.295 80.729C30.8673 81.1567 30.6036 81.7429 30.6036 82.398C30.6036 83.6946 31.6588 84.7498 32.9589 84.7498C33.6089 84.7498 34.1968 84.4876 34.6228 84.0601L39.3317 79.3494C39.7577 78.9254 40.0214 78.3359 40.0214 77.6875C40.0214 76.3873 38.9662 75.3357 37.6661 75.3357Z" fill="black"/>
<path d="M47.0839 75.3357C46.434 75.3357 45.8442 75.5979 45.4183 76.0254L40.7111 80.729C40.2852 81.1567 40.0214 81.7429 40.0214 82.398C40.0214 83.6946 41.0748 84.7498 42.375 84.7498C43.025 84.7498 43.6129 84.4876 44.0389 84.0601L48.7478 79.3494C49.1738 78.9254 49.4375 78.3359 49.4375 77.6875C49.4375 76.3873 48.3841 75.3357 47.0839 75.3357Z" fill="black"/>
<path d="M56.5 75.3357C55.85 75.3357 55.2603 75.5979 54.8344 76.0254L50.1272 80.729C49.7012 81.1567 49.4375 81.7429 49.4375 82.398C49.4375 83.6946 50.4909 84.7498 51.7911 84.7498C52.441 84.7498 53.0308 84.4876 53.4567 84.0601L58.1639 79.3494C58.5898 78.9252 58.8536 78.3355 58.8536 77.6873C58.8536 76.3873 57.8002 75.3357 56.5 75.3357Z" fill="black"/>
</svg>
