<svg width="99" height="113" viewBox="0 0 99 113" fill="none" xmlns="http://www.w3.org/2000/svg">
<path d="M97.1102 113H1.76643C0.790512 113 0.000808716 112.211 0.000808716 111.234V54.7344C0.000808716 53.7576 0.790512 52.9688 1.76643 52.9688C2.74322 52.9688 3.53206 53.7576 3.53206 54.7344V109.469H95.3446V54.7344C95.3446 53.7576 96.1343 52.9688 97.1102 52.9688C98.087 52.9688 98.8758 53.7576 98.8758 54.7344V111.234C98.8758 112.211 98.087 113 97.1102 113Z" fill="black"/>
<path d="M49.4366 88.2813C49.1012 88.2813 48.7607 88.1838 48.4589 87.9847L0.787059 56.2034C-0.0259219 55.6612 -0.244039 54.5663 0.297374 53.7541C0.8362 52.942 1.93282 52.7231 2.74666 53.2653L50.4185 85.0466C51.2307 85.5889 51.4496 86.6837 50.9074 87.4959C50.5685 88.0062 50.0073 88.2813 49.4366 88.2813Z" fill="black"/>
<path d="M49.44 88.2813C48.8702 88.2813 48.3081 88.0062 47.9692 87.4959C47.4278 86.6837 47.646 85.5889 48.4589 85.0466L96.1308 53.2653C96.9429 52.7231 98.037 52.942 98.5792 53.7541C99.1215 54.5663 98.9025 55.6612 98.0904 56.2034L50.4185 87.9847C50.1168 88.1838 49.7754 88.2813 49.44 88.2813Z" fill="black"/>
<path d="M97.1085 113C96.7731 113 96.4326 112.903 96.1308 112.703L53.7532 84.4517C52.9411 83.9094 52.7221 82.8145 53.2644 82.0024C53.8032 81.192 54.8981 80.973 55.7137 81.5136L98.0904 109.765C98.9025 110.308 99.1215 111.402 98.5793 112.215C98.2404 112.725 97.6792 113 97.1085 113Z" fill="black"/>
<path d="M1.76815 113C1.19829 113 0.636188 112.725 0.297374 112.215C-0.244039 111.402 -0.0259219 110.308 0.787059 109.765L43.1621 81.5153C43.9742 80.9731 45.0699 81.192 45.6105 82.0041C46.1528 82.8163 45.9338 83.9112 45.1217 84.4534L2.74666 112.703C2.44492 112.903 2.10352 113 1.76815 113Z" fill="black"/>
<path d="M97.1085 56.5C96.7731 56.5 96.4326 56.4026 96.1308 56.2034L82.0058 46.7873C81.1928 46.2451 80.9747 45.1502 81.5161 44.3381C82.0567 43.5277 83.1516 43.307 83.9654 43.8492L98.0904 53.2653C98.9025 53.8076 99.1215 54.9025 98.5792 55.7146C98.2404 56.225 97.6792 56.5 97.1085 56.5Z" fill="black"/>
<path d="M1.76815 56.5C1.19829 56.5 0.636188 56.225 0.297374 55.7146C-0.244039 54.9025 -0.0259219 53.8076 0.787059 53.2653L14.9121 43.8492C15.7242 43.307 16.8199 43.5277 17.3605 44.3381C17.9028 45.1502 17.6838 46.2451 16.8717 46.7873L2.74666 56.2034C2.44492 56.4026 2.10352 56.5 1.76815 56.5Z" fill="black"/>
<path d="M15.8914 65.9161C14.9155 65.9161 14.1258 65.1273 14.1258 64.1505V1.76562C14.1258 0.788841 14.9155 0 15.8914 0C16.8682 0 17.6571 0.788841 17.6571 1.76562V64.1505C17.6571 65.1273 16.8682 65.9161 15.8914 65.9161Z" fill="black"/>
<path d="M82.9852 65.9161C82.0093 65.9161 81.2196 65.1273 81.2196 64.1505V1.76562C81.2196 0.788841 82.0093 0 82.9852 0C83.962 0 84.7508 0.788841 84.7508 1.76562V64.1505C84.7508 65.1273 83.962 65.9161 82.9852 65.9161Z" fill="black"/>
<path d="M82.9852 3.53125H15.8914C14.9155 3.53125 14.1258 2.74241 14.1258 1.76562C14.1258 0.788841 14.9155 0 15.8914 0H82.9852C83.962 0 84.7508 0.788841 84.7508 1.76562C84.7508 2.74241 83.962 3.53125 82.9852 3.53125Z" fill="black"/>
<path d="M45.9053 47.6719C45.5363 47.6719 45.1656 47.5572 44.8475 47.3184C44.0673 46.7347 43.9087 45.6269 44.4949 44.8484L55.0886 30.7234C55.6749 29.9415 56.7819 29.7863 57.5586 30.3708C58.3388 30.9553 58.4975 32.0623 57.9121 32.8408L47.3183 46.9658C46.9735 47.4279 46.4442 47.6719 45.9053 47.6719Z" fill="black"/>
<path d="M67.0963 47.6719C66.5583 47.6719 66.0298 47.4279 65.6824 46.9658L55.0886 32.8408C54.5024 32.0623 54.661 30.9553 55.4413 30.3708C56.2206 29.7846 57.3276 29.9415 57.9121 30.7234L68.5058 44.8484C69.0912 45.6269 68.9326 46.7347 68.1524 47.3184C67.836 47.5572 67.4653 47.6719 67.0963 47.6719Z" fill="black"/>
<path d="M35.3116 47.6718C34.9253 47.6718 34.5365 47.5468 34.2098 47.2848C33.4485 46.6744 33.3252 45.564 33.9348 44.8027L40.9973 35.9746C41.6077 35.2185 42.7181 35.09 43.4793 35.6996C44.2406 36.3099 44.3639 37.4204 43.7552 38.1816L36.6927 47.0097C36.3427 47.4442 35.8306 47.6718 35.3116 47.6718Z" fill="black"/>
<path d="M47.6166 45.3925C47.0976 45.3925 46.5855 45.1649 46.2355 44.7303L40.9973 38.1817C40.3878 37.4187 40.5136 36.3083 41.2723 35.6996C42.037 35.0884 43.1457 35.2186 43.7552 35.9746L48.9935 42.5233C49.603 43.2863 49.4771 44.3967 48.7184 45.0062C48.3917 45.2674 48.0029 45.3925 47.6166 45.3925Z" fill="black"/>
<path d="M70.6258 47.6719H28.2508C27.2749 47.6719 26.4852 46.883 26.4852 45.9062V14.125C26.4852 13.1482 27.2749 12.3594 28.2508 12.3594H70.6258C71.6026 12.3594 72.3914 13.1482 72.3914 14.125V45.9062C72.3914 46.883 71.6026 47.6719 70.6258 47.6719ZM30.0164 44.1406H68.8602V15.8906H30.0164V44.1406Z" fill="black"/>
<path d="M70.6258 56.5H28.2508C27.2749 56.5 26.4852 55.7112 26.4852 54.7344C26.4852 53.7576 27.2749 52.9688 28.2508 52.9688H70.6258C71.6026 52.9688 72.3914 53.7576 72.3914 54.7344C72.3914 55.7112 71.6026 56.5 70.6258 56.5Z" fill="black"/>
<path d="M70.6258 63.5625H28.2508C27.2749 63.5625 26.4852 62.7737 26.4852 61.7969C26.4852 60.8201 27.2749 60.0312 28.2508 60.0312H70.6258C71.6026 60.0312 72.3914 60.8201 72.3914 61.7969C72.3914 62.7737 71.6026 63.5625 70.6258 63.5625Z" fill="black"/>
<path d="M61.7977 70.625H37.0789C36.103 70.625 35.3133 69.8362 35.3133 68.8594C35.3133 67.8826 36.103 67.0938 37.0789 67.0938H61.7977C62.7745 67.0938 63.5633 67.8826 63.5633 68.8594C63.5633 69.8362 62.7745 70.625 61.7977 70.625Z" fill="black"/>
<path d="M37.9617 28.25C35.5271 28.25 33.5477 26.2706 33.5477 23.8359C33.5477 21.4013 35.5271 19.4219 37.9617 19.4219C40.3964 19.4219 42.3758 21.4013 42.3758 23.8359C42.3758 26.2706 40.3964 28.25 37.9617 28.25ZM37.9617 22.9531C37.4764 22.9531 37.0789 23.3506 37.0789 23.8359C37.0789 24.3213 37.4764 24.7188 37.9617 24.7188C38.4471 24.7188 38.8446 24.3213 38.8446 23.8359C38.8446 23.3506 38.4471 22.9531 37.9617 22.9531Z" fill="black"/>
</svg>
