<svg width="113" height="138" viewBox="0 0 113 138" fill="none" xmlns="http://www.w3.org/2000/svg">
<path d="M35.7668 81.0461H4.3294L8.45637 4.22144H63.7818L65.9176 44.0012C65.9799 45.1652 66.97 46.0562 68.1346 45.9954C69.2963 45.9327 70.1875 44.9384 70.1249 43.7744L67.8818 1.99731C67.8216 0.877216 66.8976 0 65.7783 0H6.46015C5.34085 0 4.41676 0.877216 4.35665 1.99731L0.0030156 83.0434C-0.0278811 83.622 0.179689 84.188 0.577414 84.6087C0.97542 85.0294 1.52819 85.2675 2.10652 85.2675H35.7668C36.9305 85.2675 37.8734 84.3225 37.8734 83.1568C37.8734 81.9911 36.9305 81.0461 35.7668 81.0461Z" fill="white"/>
<path d="M20.0778 7.84401C18.9141 7.84401 17.9712 8.78905 17.9712 9.95474V19.8397C17.9712 29.3832 25.7203 37.1476 35.2453 37.1476C44.7702 37.1476 52.5193 29.3832 52.5193 19.8397V9.95474C52.5193 8.78905 51.5764 7.84401 50.4127 7.84401C49.2491 7.84401 48.3061 8.78905 48.3061 9.95474V19.8397C48.3061 27.0555 42.4473 32.9261 35.2453 32.9261C28.0432 32.9261 22.1844 27.0555 22.1844 19.8397V9.95474C22.1844 8.78905 21.2414 7.84401 20.0778 7.84401Z" fill="white"/>
<path d="M110.894 48.5438H105.047L103.811 25.2152C103.752 24.0946 102.828 23.2162 101.708 23.2162H98.3375V21.0647C98.3375 16.8976 94.9541 13.5075 90.7951 13.5075C86.6361 13.5075 83.2523 16.8976 83.2523 21.0647V23.2162H80.4975C79.3776 23.2162 78.4532 24.0946 78.394 25.2152L77.1587 48.5438H42.6431C41.4794 48.5438 40.5365 49.4888 40.5365 50.6545V92.4448C40.5365 93.6105 41.4794 94.5555 42.6431 94.5555H110.893C112.057 94.5555 113 93.6105 113 92.4448V50.6545C113 49.4888 112.057 48.5438 110.894 48.5438ZM87.4653 21.065C87.4653 19.2256 88.9587 17.7292 90.7948 17.7292C92.6303 17.7292 94.1241 19.2256 94.1241 21.065V23.2165H87.4655V21.065H87.4653ZM82.4951 27.438H99.7096L100.828 48.5438H81.3772L82.4951 27.438ZM108.787 52.7652V59.0968H44.7497V52.7652H108.787ZM44.7497 90.3341V63.3186H108.787V90.3341H44.7497Z" fill="white"/>
<path d="M7.50142 115.125L13.1824 128.719L18.8845 115.125H20.6194V130.528H19.3182V123.821L19.424 116.944L13.6902 130.528H12.6852L6.97247 116.997L7.07826 123.778V130.528H5.77704V115.125H7.50142ZM31.4524 130.528C31.3254 130.168 31.2443 129.636 31.2091 128.93C30.7648 129.509 30.197 129.957 29.5058 130.274C28.8217 130.584 28.0953 130.739 27.3266 130.739C26.2263 130.739 25.3342 130.433 24.6501 129.819C23.973 129.205 23.6345 128.43 23.6345 127.492C23.6345 126.377 24.0964 125.496 25.0203 124.847C25.9513 124.198 27.2455 123.874 28.9028 123.874H31.1985V122.572C31.1985 121.754 30.9446 121.112 30.4368 120.647C29.9361 120.174 29.2026 119.938 28.2364 119.938C27.3548 119.938 26.6248 120.164 26.0465 120.615C25.4682 121.067 25.179 121.61 25.179 122.244L23.9095 122.234C23.9095 121.324 24.3327 120.538 25.179 119.875C26.0253 119.205 27.0656 118.87 28.2998 118.87C29.5764 118.87 30.5814 119.191 31.3149 119.832C32.0554 120.467 32.4362 121.356 32.4574 122.498V127.915C32.4574 129.022 32.5738 129.851 32.8065 130.401V130.528H31.4524ZM27.4747 129.618C28.321 129.618 29.0756 129.413 29.7386 129.004C30.4086 128.595 30.8952 128.049 31.1985 127.365V124.847H28.9346C27.6721 124.861 26.6848 125.094 25.9724 125.545C25.2601 125.989 24.904 126.603 24.904 127.386C24.904 128.028 25.1402 128.56 25.6128 128.983C26.0923 129.406 26.713 129.618 27.4747 129.618ZM41.1322 120.16C40.8642 120.111 40.5786 120.086 40.2753 120.086C39.4854 120.086 38.8154 120.308 38.2653 120.753C37.7222 121.19 37.3343 121.828 37.1016 122.668V130.528H35.8427V119.081H37.0804L37.1016 120.901C37.7716 119.547 38.8472 118.87 40.3282 118.87C40.6809 118.87 40.9594 118.916 41.164 119.007L41.1322 120.16ZM45.8611 124.762L44.4117 126.159V130.528H43.1422V114.278H44.4117V124.678L45.6072 123.387L49.9869 119.081H51.5843L46.7285 123.905L52.0075 130.528H50.4947L45.8611 124.762ZM55.7313 116.151V119.081H58.101V120.118H55.7313V127.745C55.7313 128.38 55.8442 128.853 56.0698 129.163C56.3026 129.473 56.687 129.629 57.223 129.629C57.4345 129.629 57.7766 129.593 58.2491 129.523L58.302 130.56C57.9705 130.679 57.5192 130.739 56.9479 130.739C56.0804 130.739 55.4492 130.489 55.0543 129.988C54.6593 129.48 54.4618 128.736 54.4618 127.756V120.118H52.3566V119.081H54.4618V116.151H55.7313ZM61.8777 119.081L61.9201 120.943C62.3432 120.252 62.8722 119.734 63.5069 119.388C64.1417 119.042 64.8469 118.87 65.6227 118.87C67.4282 118.87 68.5743 119.61 69.0609 121.091C69.47 120.379 70.0166 119.832 70.7007 119.452C71.3848 119.064 72.1394 118.87 72.9646 118.87C75.4189 118.87 76.6708 120.21 76.7202 122.89V130.528H75.4507V122.985C75.4436 121.962 75.2215 121.204 74.7842 120.71C74.354 120.217 73.6487 119.97 72.6684 119.97C71.7586 119.984 70.9898 120.28 70.3621 120.859C69.7345 121.43 69.3853 122.128 69.3148 122.953V130.528H68.0453V122.89C68.0383 121.909 67.8055 121.179 67.3471 120.7C66.8957 120.213 66.1975 119.97 65.2525 119.97C64.4555 119.97 63.7714 120.199 63.2001 120.658C62.6289 121.109 62.2057 121.782 61.9306 122.678V130.528H60.6612V119.081H61.8777ZM87.1617 130.528C87.0347 130.168 86.9536 129.636 86.9184 128.93C86.474 129.509 85.9063 129.957 85.2151 130.274C84.531 130.584 83.8046 130.739 83.0358 130.739C81.9356 130.739 81.0435 130.433 80.3593 129.819C79.6823 129.205 79.3438 128.43 79.3438 127.492C79.3438 126.377 79.8057 125.496 80.7296 124.847C81.6606 124.198 82.9547 123.874 84.6121 123.874H86.9078V122.572C86.9078 121.754 86.6539 121.112 86.1461 120.647C85.6453 120.174 84.9119 119.938 83.9456 119.938C83.0641 119.938 82.3341 120.164 81.7558 120.615C81.1775 121.067 80.8883 121.61 80.8883 122.244L79.6188 122.234C79.6188 121.324 80.042 120.538 80.8883 119.875C81.7346 119.205 82.7749 118.87 84.0091 118.87C85.2857 118.87 86.2907 119.191 87.0241 119.832C87.7647 120.467 88.1455 121.356 88.1667 122.498V127.915C88.1667 129.022 88.2831 129.851 88.5158 130.401V130.528H87.1617ZM83.184 129.618C84.0303 129.618 84.7849 129.413 85.4479 129.004C86.1179 128.595 86.6045 128.049 86.9078 127.365V124.847H84.6439C83.3814 124.861 82.394 125.094 81.6817 125.545C80.9694 125.989 80.6132 126.603 80.6132 127.386C80.6132 128.028 80.8495 128.56 81.322 128.983C81.8016 129.406 82.4223 129.618 83.184 129.618ZM92.758 119.081L92.8003 121.038C93.2305 120.333 93.7665 119.797 94.4083 119.43C95.0501 119.057 95.7589 118.87 96.5347 118.87C97.7619 118.87 98.6752 119.215 99.2747 119.906C99.8742 120.598 100.177 121.634 100.184 123.017V130.528H98.9256V123.006C98.9185 121.983 98.6999 121.222 98.2697 120.721C97.8465 120.22 97.1659 119.97 96.2279 119.97C95.4451 119.97 94.7504 120.217 94.1438 120.71C93.5444 121.197 93.1 121.856 92.8109 122.689V130.528H91.552V119.081H92.758Z" fill="white"/>
</svg>
