<svg width="85" height="113" viewBox="0 0 85 113" fill="none" xmlns="http://www.w3.org/2000/svg">
<path d="M82.8059 0H1.76183C0.787537 0 0 0.789234 0 1.76562V111.234C0 112.211 0.787537 113 1.76183 113H82.8059C83.7802 113 84.5677 112.211 84.5677 111.234V1.76562C84.5677 0.789234 83.7802 0 82.8059 0ZM81.0441 109.469H3.52366V3.53125H81.0441V109.469Z" fill="black"/>
<path d="M77.5204 5.29688C76.5461 5.29688 75.7586 6.08611 75.7586 7.0625V104.172H8.80912V7.0625C8.80912 6.08611 8.02158 5.29688 7.04729 5.29688C6.073 5.29688 5.28546 6.08611 5.28546 7.0625V105.938C5.28546 106.914 6.073 107.703 7.04729 107.703H77.5204C78.4947 107.703 79.2822 106.914 79.2822 105.938V7.0625C79.2822 6.08611 78.4947 5.29688 77.5204 5.29688Z" fill="black"/>
<path d="M31.5261 8.03707L28.0025 0.974566C27.5655 0.102347 26.5084 -0.247246 25.6381 0.185332C24.7677 0.621441 24.4154 1.68258 24.8505 2.5548L28.3742 9.6173C28.6843 10.237 29.3062 10.5937 29.9528 10.5937C30.2171 10.5937 30.4866 10.5337 30.7386 10.4065C31.6089 9.97043 31.9613 8.90928 31.5261 8.03707Z" fill="black"/>
<path d="M58.9296 0.187102C58.061 -0.245476 57.0022 0.104117 56.5652 0.976336L53.0416 8.03884C52.6064 8.91105 52.9588 9.9722 53.8291 10.4083C54.0811 10.5337 54.3506 10.5937 54.6149 10.5937C55.2615 10.5937 55.8834 10.237 56.1935 9.61907L59.7171 2.55657C60.1523 1.68435 59.8 0.623211 58.9296 0.187102Z" fill="black"/>
<path d="M54.6166 7.0625H29.951C28.9767 7.0625 28.1892 7.85173 28.1892 8.82812C28.1892 9.80452 28.9767 10.5938 29.951 10.5938H54.6166C55.5909 10.5938 56.3785 9.80452 56.3785 8.82812C56.3785 7.85173 55.5909 7.0625 54.6166 7.0625Z" fill="black"/>
<path d="M77.5204 5.29688H55.4975C54.5233 5.29688 53.7357 6.08611 53.7357 7.0625C53.7357 8.03889 54.5233 8.82812 55.4975 8.82812H77.5204C78.4947 8.82812 79.2822 8.03889 79.2822 7.0625C79.2822 6.08611 78.4947 5.29688 77.5204 5.29688Z" fill="black"/>
<path d="M29.0701 5.29688H7.04729C6.073 5.29688 5.28546 6.08611 5.28546 7.0625C5.28546 8.03889 6.073 8.82812 7.04729 8.82812H29.0701C30.0444 8.82812 30.832 8.03889 30.832 7.0625C30.832 6.08611 30.0444 5.29688 29.0701 5.29688Z" fill="black"/>
<path d="M25.9376 30.563L24.2621 28.7974C23.5909 28.0947 22.4756 28.0664 21.7709 28.7356C21.0662 29.4083 21.038 30.5259 21.7092 31.2322L23.3847 32.9978C23.7318 33.3633 24.1952 33.5469 24.662 33.5469C25.099 33.5469 25.5359 33.3845 25.8759 33.0596C26.5807 32.3869 26.6089 31.2693 25.9376 30.563Z" fill="black"/>
<path d="M29.4348 26.9981C28.746 26.3078 27.6325 26.3078 26.9436 26.9981L23.4164 30.5329C22.7276 31.2233 22.7276 32.3392 23.4164 33.0295C23.76 33.3738 24.211 33.5468 24.662 33.5468C25.1131 33.5468 25.5641 33.3738 25.9077 33.0295L29.4348 29.4947C30.1237 28.8044 30.1237 27.6885 29.4348 26.9981Z" fill="black"/>
<path d="M25.5465 17.6562C19.2321 17.6562 14.0946 22.8048 14.0946 29.1328C14.0946 35.4608 19.2321 40.6094 25.5465 40.6094C31.8609 40.6094 36.9984 35.4608 36.9984 29.1328C36.9984 22.8048 31.8609 17.6562 25.5465 17.6562ZM25.5465 37.0781C21.1754 37.0781 17.6183 33.5133 17.6183 29.1328C17.6183 24.7523 21.1754 21.1875 25.5465 21.1875C29.9176 21.1875 33.4747 24.7523 33.4747 29.1328C33.4747 33.5133 29.9176 37.0781 25.5465 37.0781Z" fill="black"/>
<path d="M68.7113 22.9531H44.0457C43.0714 22.9531 42.2839 23.7424 42.2839 24.7188C42.2839 25.6951 43.0714 26.4844 44.0457 26.4844H68.7113C69.6856 26.4844 70.4731 25.6951 70.4731 24.7188C70.4731 23.7424 69.6856 22.9531 68.7113 22.9531Z" fill="black"/>
<path d="M56.3785 30.0156H44.0457C43.0714 30.0156 42.2839 30.8049 42.2839 31.7812C42.2839 32.7576 43.0714 33.5469 44.0457 33.5469H56.3785C57.3528 33.5469 58.1403 32.7576 58.1403 31.7812C58.1403 30.8049 57.3528 30.0156 56.3785 30.0156Z" fill="black"/>
<path d="M25.9376 87.063L24.2621 85.2974C23.5909 84.5947 22.4756 84.5664 21.7709 85.2356C21.0662 85.9083 21.038 87.0259 21.7092 87.7322L23.3847 89.4978C23.7318 89.8633 24.1952 90.0469 24.662 90.0469C25.099 90.0469 25.5359 89.8845 25.8759 89.5596C26.5807 88.8869 26.6089 87.7693 25.9376 87.063Z" fill="black"/>
<path d="M29.4348 83.4981C28.746 82.8078 27.6325 82.8078 26.9436 83.4981L23.4164 87.0329C22.7276 87.7233 22.7276 88.8391 23.4164 89.5295C23.76 89.8738 24.211 90.0468 24.662 90.0468C25.1131 90.0468 25.5641 89.8738 25.9077 89.5295L29.4348 85.9947C30.1237 85.3044 30.1237 84.1885 29.4348 83.4981Z" fill="black"/>
<path d="M25.5465 74.1562C19.2321 74.1562 14.0946 79.3048 14.0946 85.6328C14.0946 91.9608 19.2321 97.1094 25.5465 97.1094C31.8609 97.1094 36.9984 91.9608 36.9984 85.6328C36.9984 79.3048 31.8609 74.1562 25.5465 74.1562ZM25.5465 93.5781C21.1754 93.5781 17.6183 90.0133 17.6183 85.6328C17.6183 81.2523 21.1754 77.6875 25.5465 77.6875C29.9176 77.6875 33.4747 81.2523 33.4747 85.6328C33.4747 90.0133 29.9176 93.5781 25.5465 93.5781Z" fill="black"/>
<path d="M68.7113 79.4531H44.0457C43.0714 79.4531 42.2839 80.2424 42.2839 81.2188C42.2839 82.1951 43.0714 82.9844 44.0457 82.9844H68.7113C69.6856 82.9844 70.4731 82.1951 70.4731 81.2188C70.4731 80.2424 69.6856 79.4531 68.7113 79.4531Z" fill="black"/>
<path d="M56.3785 86.5156H44.0457C43.0714 86.5156 42.2839 87.3049 42.2839 88.2812C42.2839 89.2576 43.0714 90.0469 44.0457 90.0469H56.3785C57.3528 90.0469 58.1403 89.2576 58.1403 88.2812C58.1403 87.3049 57.3528 86.5156 56.3785 86.5156Z" fill="black"/>
<path d="M29.4349 53.4861C28.746 52.7957 27.6325 52.7957 26.9437 53.4861L21.6547 58.7829C20.9658 59.4715 20.9658 60.5892 21.6547 61.2795C21.9982 61.6238 22.4492 61.7969 22.9003 61.7969C23.3513 61.7969 23.8023 61.6238 24.1459 61.2795L29.4349 55.9827C30.1238 55.2941 30.1238 54.1764 29.4349 53.4861Z" fill="black"/>
<path d="M29.4349 58.7829L24.1459 53.4861C23.457 52.7957 22.3435 52.7957 21.6547 53.4861C20.9658 54.1764 20.9658 55.2941 21.6547 55.9827L26.9437 61.2795C27.2872 61.6238 27.7382 61.7969 28.1893 61.7969C28.6403 61.7969 29.0913 61.6238 29.4349 61.2795C30.1238 60.5892 30.1238 59.4715 29.4349 58.7829Z" fill="black"/>
<path d="M25.5465 45.9062C19.2321 45.9062 14.0946 51.0548 14.0946 57.3828C14.0946 63.7108 19.2321 68.8594 25.5465 68.8594C31.8609 68.8594 36.9984 63.7108 36.9984 57.3828C36.9984 51.0548 31.8609 45.9062 25.5465 45.9062ZM25.5465 65.3281C21.1754 65.3281 17.6183 61.7633 17.6183 57.3828C17.6183 53.0023 21.1754 49.4375 25.5465 49.4375C29.9176 49.4375 33.4747 53.0023 33.4747 57.3828C33.4747 61.7633 29.9176 65.3281 25.5465 65.3281Z" fill="black"/>
<path d="M68.7113 51.2031H44.0457C43.0714 51.2031 42.2839 51.9924 42.2839 52.9688C42.2839 53.9451 43.0714 54.7344 44.0457 54.7344H68.7113C69.6856 54.7344 70.4731 53.9451 70.4731 52.9688C70.4731 51.9924 69.6856 51.2031 68.7113 51.2031Z" fill="black"/>
<path d="M56.3785 58.2656H44.0457C43.0714 58.2656 42.2839 59.0549 42.2839 60.0312C42.2839 61.0076 43.0714 61.7969 44.0457 61.7969H56.3785C57.3528 61.7969 58.1403 61.0076 58.1403 60.0312C58.1403 59.0549 57.3528 58.2656 56.3785 58.2656Z" fill="black"/>
</svg>
