<svg width="104" height="113" viewBox="0 0 104 113" fill="none" xmlns="http://www.w3.org/2000/svg">
<path d="M53.15 70.5901C51.8498 70.6073 50.8085 71.6728 50.8257 72.973C50.8792 77.4216 51.2274 80.7323 51.9207 83.3878C52.1983 84.4465 53.1518 85.1497 54.1966 85.1497C54.3948 85.1497 54.595 85.1221 54.795 85.0705C56.0536 84.743 56.8054 83.4567 56.4743 82.198C55.8881 79.9529 55.5811 76.9182 55.5328 72.9179C55.5156 71.6177 54.45 70.5728 53.15 70.5901Z" fill="black"/>
<path d="M53.7724 50.7561C52.4722 50.7321 51.3998 51.7683 51.3773 53.0683C51.329 55.777 51.2153 58.5928 51.1049 61.3172L51.0394 62.9346C50.9878 64.2312 51.9999 65.3277 53.2981 65.3794C53.3308 65.3794 53.3619 65.3794 53.393 65.3794C54.6515 65.3794 55.6948 64.3864 55.7429 63.1209L55.8085 61.5071C55.9223 58.7586 56.036 55.9137 56.0843 53.1513C56.1086 51.8511 55.0724 50.7784 53.7724 50.7561Z" fill="black"/>
<path d="M51.1138 43.4125C51.2277 44.6333 52.2535 45.547 53.4553 45.547C53.5276 45.547 53.6018 45.5435 53.6777 45.5366C54.9706 45.4161 55.9226 44.2693 55.8018 42.9744C55.3915 38.5759 54.5363 35.1636 53.1948 32.5426C52.6033 31.3839 51.1844 30.9271 50.0272 31.5186C48.8685 32.1118 48.4116 33.5308 49.0047 34.6877C50.0687 36.7672 50.7584 39.6208 51.1138 43.4125Z" fill="black"/>
<path d="M75.3583 81.4944C75.7514 81.7462 76.1895 81.8669 76.6238 81.8669C77.3998 81.8669 78.1584 81.4842 78.6067 80.7806C80.3101 78.1252 81.8551 74.9835 83.193 71.4488C83.6552 70.2314 83.0411 68.8727 81.8273 68.4106C80.6065 67.9519 79.2478 68.5657 78.7892 69.7796C77.5649 73.011 76.1718 75.8595 74.6441 78.2424C73.9444 79.3356 74.2616 80.791 75.3583 81.4944Z" fill="black"/>
<path d="M23.6171 33.2377C21.1771 35.5257 18.9977 38.3466 17.1406 41.6193C16.4975 42.7504 16.8941 44.1868 18.0252 44.8281C18.3925 45.0367 18.7909 45.1367 19.1857 45.1367C20.0047 45.1367 20.8013 44.7074 21.2341 43.9435C22.8583 41.0829 24.7447 38.6364 26.8381 36.6705C27.7865 35.7809 27.8328 34.2911 26.9449 33.3445C26.055 32.3963 24.5652 32.348 23.6171 33.2377Z" fill="black"/>
<path d="M101.877 9.50672L68.9165 0.0906506C68.4888 -0.0316216 68.0405 -0.0265453 67.6267 0.0924163L67.6232 0.0906506L35.3124 9.3222L3.00008 0.0906506C2.28962 -0.112621 1.52598 0.0303973 0.936243 0.475124C0.346512 0.919851 0 1.61486 0 2.35467V101.23C0 102.282 0.696555 103.203 1.70696 103.493L34.6657 112.91H34.6779C34.8849 112.969 35.0968 113 35.3124 113C35.528 113 35.7452 112.969 35.9591 112.91L68.2683 103.679L100.581 112.91C100.795 112.969 101.015 113 101.229 113C101.733 113 102.236 112.838 102.647 112.524C103.236 112.079 103.581 111.386 103.581 110.645V11.7707C103.581 10.7206 102.884 9.7965 101.877 9.50672ZM32.9574 107.524L4.70704 99.454V5.47548L32.9572 13.5466V27.4699C32.8985 27.4924 32.8383 27.5114 32.778 27.5337C31.5573 27.9802 30.9296 29.332 31.3745 30.553C31.6453 31.2943 32.2505 31.8152 32.9574 32.0116V107.524ZM65.9166 86.2186H65.9162C64.4229 86.8119 62.8643 87.105 61.2054 87.105C61.0536 87.105 60.8984 87.0982 60.7503 87.0878C59.4539 86.9843 58.3227 87.9534 58.2192 89.2501C58.1193 90.5432 59.0884 91.6776 60.3848 91.7811C60.6539 91.8019 60.9297 91.8122 61.2056 91.8122C62.8265 91.8122 64.3991 91.5984 65.9164 91.1742V99.4543L37.6662 107.524V31.0496C39.1768 30.7547 40.7493 30.6046 42.3753 30.6046C42.639 30.6046 42.8995 30.6132 43.1495 30.6322C44.4462 30.7304 45.5773 29.758 45.674 28.4613C45.7722 27.1647 44.7998 26.0353 43.5031 25.9371C43.1358 25.9095 42.7564 25.8956 42.3755 25.8956C40.765 25.8956 39.1924 26.0214 37.6665 26.2679V13.5463L65.9166 5.47526V86.2186ZM98.8772 107.524L70.627 99.454V89.081C70.834 88.9534 71.0373 88.8188 71.2408 88.6811C72.3167 87.9501 72.5995 86.4877 71.8685 85.4119C71.5582 84.9533 71.1167 84.643 70.627 84.4878V5.47548L98.8772 13.5466V107.524Z" fill="black"/>
<path d="M81.4205 56.5012L78.3791 59.5445C77.4586 60.4618 77.4586 61.9516 78.3794 62.8724C78.8345 63.331 79.4414 63.5621 80.0413 63.5621C80.6447 63.5621 81.2483 63.331 81.707 62.8724L84.7521 59.829L87.7934 62.8724C88.2521 63.331 88.8555 63.5621 89.4556 63.5621C90.0625 63.5621 90.6626 63.331 91.1246 62.8724C92.0418 61.9516 92.0418 60.4618 91.1246 59.5445L88.0795 56.5012L91.1246 53.4563C92.0418 52.5373 92.0418 51.0475 91.1246 50.1285C90.2038 49.2077 88.7105 49.2077 87.7932 50.1285L84.7519 53.1718L81.7067 50.1285C80.786 49.2077 79.2964 49.2077 78.3791 50.1285C77.4583 51.0475 77.4583 52.5373 78.3791 53.4563L81.4205 56.5012Z" fill="black"/>
<path d="M14.1249 49.4387C10.2298 49.4387 7.06244 52.6061 7.06244 56.5012C7.06244 60.3929 10.2298 63.562 14.1249 63.562C18.0184 63.562 21.1875 60.3929 21.1875 56.5012C21.1875 52.6061 18.0182 49.4387 14.1249 49.4387ZM14.1249 58.8548C12.8264 58.8548 11.7695 57.7998 11.7695 56.5012C11.7695 55.2029 12.8264 54.146 14.1249 54.146C15.4215 54.146 16.4785 55.2029 16.4785 56.5012C16.4785 57.7998 15.4215 58.8548 14.1249 58.8548Z" fill="black"/>
</svg>
