<svg width="132" height="113" fill="none" xmlns="http://www.w3.org/2000/svg"><path d="M127.017 6.164H4.097A2.05 2.05 0 0 0 2.05 8.218v71.91a2.05 2.05 0 1 0 4.097 0V10.272H124.97v69.854a2.05 2.05 0 1 0 4.097 0V8.218a2.05 2.05 0 0 0-2.049-2.054z" fill="#000"/><path d="M22.535 0a2.05 2.05 0 0 0-2.048 2.055v6.163a2.05 2.05 0 1 0 4.097 0V2.055A2.05 2.05 0 0 0 22.535 0z" fill="#000"/><path d="M28.681 0H16.39a2.05 2.05 0 0 0-2.048 2.055 2.05 2.05 0 0 0 2.048 2.054h12.292a2.05 2.05 0 0 0 2.049-2.054A2.05 2.05 0 0 0 28.681 0zm22.536 0a2.05 2.05 0 0 0-2.05 2.055v6.163a2.05 2.05 0 1 0 4.098 0V2.055A2.05 2.05 0 0 0 51.217 0z" fill="#000"/><path d="M57.363 0H45.07a2.05 2.05 0 0 0-2.05 2.055 2.05 2.05 0 0 0 2.05 2.054h12.292a2.05 2.05 0 0 0 2.048-2.054A2.05 2.05 0 0 0 57.363 0zm22.535 0a2.05 2.05 0 0 0-2.049 2.055v6.163a2.05 2.05 0 1 0 4.098 0V2.055A2.05 2.05 0 0 0 79.897 0z" fill="#000"/><path d="M86.044 0H73.752a2.05 2.05 0 0 0-2.049 2.055 2.05 2.05 0 0 0 2.049 2.054h12.292a2.05 2.05 0 0 0 2.049-2.054A2.05 2.05 0 0 0 86.043 0zm22.535 0a2.05 2.05 0 0 0-2.048 2.055v6.163a2.05 2.05 0 1 0 4.097 0V2.055A2.05 2.05 0 0 0 108.579 0z" fill="#000"/><path d="M114.725 0h-12.292a2.05 2.05 0 0 0-2.048 2.055 2.05 2.05 0 0 0 2.048 2.054h12.292a2.05 2.05 0 0 0 2.049-2.054A2.05 2.05 0 0 0 114.725 0zm14.341 78.073H2.049A2.05 2.05 0 0 0 0 80.127a2.05 2.05 0 0 0 2.049 2.055h127.017a2.05 2.05 0 0 0 2.049-2.055 2.05 2.05 0 0 0-2.049-2.054z" fill="#000"/><path d="M59.411 78.073a2.05 2.05 0 0 0-2.048 2.054v30.818a2.05 2.05 0 1 0 4.097 0V80.127a2.05 2.05 0 0 0-2.049-2.054zm12.292 0a2.05 2.05 0 0 0-2.048 2.054v30.818a2.05 2.05 0 1 0 4.097 0V80.127a2.05 2.05 0 0 0-2.049-2.054z" fill="#000"/><path d="M73.752 86.29h-2.049a2.05 2.05 0 0 0-2.048 2.055 2.05 2.05 0 0 0 2.048 2.055h2.049a2.05 2.05 0 0 0 2.049-2.055 2.05 2.05 0 0 0-2.05-2.054zm0 8.22h-2.049a2.05 2.05 0 0 0-2.048 2.054 2.05 2.05 0 0 0 2.048 2.054h2.049a2.05 2.05 0 0 0 2.049-2.054 2.05 2.05 0 0 0-2.05-2.055zm0 8.217h-2.049a2.05 2.05 0 0 0-2.048 2.055 2.05 2.05 0 0 0 2.048 2.054h2.049a2.05 2.05 0 0 0 2.049-2.054 2.05 2.05 0 0 0-2.05-2.055zM20.487 38.851a2.05 2.05 0 0 0-2.049 2.055v24.84a2.05 2.05 0 1 0 4.097 0v-24.84a2.05 2.05 0 0 0-2.048-2.055zm36.876-.001a2.05 2.05 0 0 0-2.05 2.054v24.841a2.05 2.05 0 1 0 4.098 0V40.904a2.05 2.05 0 0 0-2.048-2.055zM40.721 21.618a2.046 2.046 0 0 0-2.778-.82L15.408 33.125a2.055 2.055 0 0 0 .983 3.857c.332 0 .668-.08.978-.25l22.535-12.328a2.057 2.057 0 0 0 .817-2.786z" fill="#000"/><path d="M62.44 33.125L39.903 20.798a2.046 2.046 0 0 0-2.778.82 2.055 2.055 0 0 0 .817 2.786L60.48 36.73a2.04 2.04 0 0 0 2.778-.82 2.055 2.055 0 0 0-.818-2.786zm-21.719-3.289a2.046 2.046 0 0 0-2.778-.82L15.408 41.344a2.055 2.055 0 0 0 .983 3.856c.332 0 .668-.08.978-.25l22.535-12.328a2.055 2.055 0 0 0 .817-2.786z" fill="#000"/><path d="M62.44 41.344L39.903 29.016a2.046 2.046 0 0 0-2.778.82 2.055 2.055 0 0 0 .817 2.786L60.48 44.95a2.04 2.04 0 0 0 2.778-.82 2.055 2.055 0 0 0-.818-2.785zm-46.05-8.471a2.05 2.05 0 0 0-2.05 2.054v8.218a2.05 2.05 0 1 0 4.098 0v-8.218a2.05 2.05 0 0 0-2.049-2.054z" fill="#000"/><path d="M61.46 32.873a2.05 2.05 0 0 0-2.049 2.054v8.218a2.05 2.05 0 1 0 4.098 0v-8.218a2.05 2.05 0 0 0-2.05-2.054zM43.022 47.255h-8.195a2.05 2.05 0 0 0-2.048 2.054v16.436a2.05 2.05 0 0 0 2.048 2.055h8.195a2.05 2.05 0 0 0 2.049-2.055V49.31a2.05 2.05 0 0 0-2.05-2.054zM40.973 63.69h-4.097V51.364h4.097V63.69z" fill="#000"/><path d="M59.411 63.69H18.438a2.05 2.05 0 0 0-2.049 2.056 2.05 2.05 0 0 0 2.049 2.054h40.973a2.05 2.05 0 0 0 2.049-2.054 2.05 2.05 0 0 0-2.049-2.055zm53.266-34.926H75.801a2.05 2.05 0 0 0-2.05 2.054 2.05 2.05 0 0 0 2.05 2.055h36.876a2.05 2.05 0 0 0 2.048-2.055 2.05 2.05 0 0 0-2.048-2.054zm0 10.272H75.801a2.05 2.05 0 0 0-2.05 2.055 2.05 2.05 0 0 0 2.05 2.054h36.876a2.05 2.05 0 0 0 2.048-2.054 2.05 2.05 0 0 0-2.048-2.055zm0 10.274H75.801a2.05 2.05 0 0 0-2.05 2.054 2.05 2.05 0 0 0 2.05 2.054h36.876a2.05 2.05 0 0 0 2.048-2.054 2.05 2.05 0 0 0-2.048-2.055zM94.239 59.582H75.8a2.05 2.05 0 0 0-2.05 2.054 2.05 2.05 0 0 0 2.05 2.055h18.438a2.05 2.05 0 0 0 2.048-2.055 2.05 2.05 0 0 0-2.049-2.054z" fill="#000"/></svg>