<svg width="115" height="114" fill="none" xmlns="http://www.w3.org/2000/svg"><path d="M75.656 85.352h-9.2a1.77 1.77 0 0 1-1.77-1.774c0-.981.79-1.773 1.77-1.773h9.2c.978 0 1.77.792 1.77 1.773a1.77 1.77 0 0 1-1.77 1.774zM23.983 97.766a1.77 1.77 0 0 1-1.77-1.773c0-7.823 6.352-14.188 14.158-14.188.979 0 1.77.792 1.77 1.773a1.77 1.77 0 0 1-1.77 1.774c-5.856 0-10.618 4.772-10.618 10.64a1.77 1.77 0 0 1-1.77 1.774z" fill="#000"/><path d="M45.22 85.352h-8.85a1.77 1.77 0 0 1-1.769-1.774c0-.981.79-1.773 1.77-1.773h8.848c.98 0 1.77.792 1.77 1.773a1.77 1.77 0 0 1-1.77 1.774zM23.983 99.545a1.77 1.77 0 0 1-1.77-1.774V96.25a1.77 1.77 0 1 1 3.54 0v1.521a1.77 1.77 0 0 1-1.77 1.774z" fill="#000"/><path d="M45.22 85.352a1.77 1.77 0 0 1-1.77-1.774v-7.711a1.77 1.77 0 1 1 3.539 0v7.711a1.77 1.77 0 0 1-1.77 1.774zm21.235 0a1.77 1.77 0 0 1-1.77-1.774v-7.711a1.77 1.77 0 1 1 3.54 0v7.711a1.77 1.77 0 0 1-1.77 1.774z" fill="#000"/><path d="M55.837 80.031c-14.637 0-26.545-11.934-26.545-26.602a1.77 1.77 0 1 1 3.54 0c0 12.712 10.32 23.055 23.005 23.055 12.685 0 23.006-10.343 23.006-23.055 0-.979.79-1.774 1.77-1.774.978 0 1.769.795 1.769 1.774 0 14.668-11.908 26.602-26.545 26.602z" fill="#000"/><path d="M31.062 55.161a1.77 1.77 0 0 1-1.77-1.773V35.694a1.77 1.77 0 1 1 3.54 0v17.694c0 .978-.791 1.773-1.77 1.773zm49.55.043a1.77 1.77 0 0 1-1.77-1.774V33.922a1.77 1.77 0 0 1 3.54 0V53.43c0 .98-.79 1.774-1.77 1.774z" fill="#000"/><path d="M80.612 35.694c-.979 0-1.77-.795-1.77-1.774 0-4.89-3.969-8.867-8.848-8.867-.979 0-1.77-.795-1.77-1.774s.791-1.773 1.77-1.773c6.83 0 12.388 5.569 12.388 12.414a1.77 1.77 0 0 1-1.77 1.774z" fill="#000"/><path d="M69.994 25.052a1.77 1.77 0 0 1-1.77-1.773v-8.867a1.77 1.77 0 0 1 3.54 0v8.867a1.77 1.77 0 0 1-1.77 1.773zM31.062 37.467a1.77 1.77 0 0 1-1.77-1.773c0-12.713 10.32-23.056 23.006-23.056.979 0 1.77.795 1.77 1.774 0 .978-.791 1.773-1.77 1.773-10.733 0-19.467 8.752-19.467 19.509a1.77 1.77 0 0 1-1.77 1.773zm49.55 8.868c-.452 0-.906-.175-1.25-.52l-7.08-7.094a1.774 1.774 0 0 1 0-2.508 1.765 1.765 0 0 1 2.503 0l7.079 7.094a1.774 1.774 0 0 1-1.252 3.028z" fill="#000"/><path d="M55.837 42.788c-9.866 0-18.061-3.546-18.406-3.696a1.776 1.776 0 0 1-.912-2.334 1.768 1.768 0 0 1 2.33-.917c.077.035 7.888 3.4 16.988 3.4 9.13 0 16.911-3.365 16.989-3.398a1.772 1.772 0 0 1 1.415 3.25c-.343.15-8.541 3.695-18.404 3.695z" fill="#000"/><path d="M31.062 46.313a1.774 1.774 0 0 1-1.25-3.03l7.079-7.072a1.766 1.766 0 0 1 2.502.004c.69.694.69 1.816-.003 2.508l-7.079 7.072a1.755 1.755 0 0 1-1.25.518zm19.464 42.586a1.78 1.78 0 0 1-.98-.298l-5.31-3.547a1.775 1.775 0 0 1-.49-2.46 1.768 1.768 0 0 1 2.456-.491l5.309 3.547a1.775 1.775 0 0 1-.985 3.249z" fill="#000"/><path d="M50.528 88.899c-.741 0-1.432-.47-1.677-1.214a1.772 1.772 0 0 1 1.118-2.243l5.309-1.774a1.774 1.774 0 0 1 1.12 3.365l-5.31 1.774a1.801 1.801 0 0 1-.56.092zm10.62 0a1.775 1.775 0 0 1-.984-3.25l5.309-3.546a1.77 1.77 0 0 1 2.454.49 1.775 1.775 0 0 1-.49 2.46l-5.308 3.548a1.78 1.78 0 0 1-.981.298z" fill="#000"/><path d="M61.146 88.899c-.184 0-.373-.03-.559-.092l-5.309-1.774a1.774 1.774 0 0 1-1.118-2.243 1.765 1.765 0 0 1 2.238-1.122l5.309 1.774a1.775 1.775 0 0 1-.56 3.457zm-5.256 7.094a1.777 1.777 0 0 1-1.779-1.774c0-.981.783-1.773 1.76-1.773h.019c.977 0 1.77.792 1.77 1.773a1.77 1.77 0 0 1-1.77 1.774zm0 7.094a1.778 1.778 0 0 1-1.779-1.774c0-.981.783-1.773 1.76-1.773h.019c.977 0 1.77.792 1.77 1.773 0 .981-.793 1.774-1.77 1.774zm14.104-86.902H52.298a1.77 1.77 0 0 1-1.77-1.773c0-.979.79-1.774 1.77-1.774h17.696c.98 0 1.77.795 1.77 1.774a1.77 1.77 0 0 1-1.77 1.773z" fill="#000"/><path d="M55.837 110.181c-30.25 0-54.86-24.662-54.86-54.979C.978 24.888 25.588.224 55.838.224c30.247 0 54.856 24.661 54.86 54.978 0 7.712-1.564 15.174-4.647 22.178a1.767 1.767 0 0 1-2.333.908 1.774 1.774 0 0 1-.906-2.337c2.884-6.554 4.346-13.534 4.346-20.749-.003-28.36-23.025-51.431-51.32-51.431-28.296 0-51.32 23.07-51.32 51.431 0 28.359 23.024 51.432 51.32 51.432 7.199 0 14.163-1.464 20.694-4.353a1.771 1.771 0 0 1 2.333.909 1.775 1.775 0 0 1-.906 2.337c-6.981 3.088-14.424 4.654-22.12 4.654z" fill="#000"/><path d="M93 113.729a21.06 21.06 0 0 1-15.014-6.234c-4.013-4.018-6.222-9.363-6.222-15.05 0-5.684 2.21-11.03 6.222-15.045A21.063 21.063 0 0 1 93 71.163a21.063 21.063 0 0 1 15.014 6.236c4.012 4.016 6.222 9.361 6.222 15.046 0 5.686-2.209 11.031-6.222 15.049A21.06 21.06 0 0 1 93 113.729zm0-39.018c-4.727 0-9.17 1.844-12.511 5.196a17.622 17.622 0 0 0-5.186 12.539c0 4.737 1.84 9.192 5.186 12.541A17.552 17.552 0 0 0 93 110.182c4.727 0 9.171-1.844 12.511-5.195a17.632 17.632 0 0 0 5.186-12.541c0-4.737-1.841-9.19-5.186-12.539A17.545 17.545 0 0 0 93 74.711z" fill="#000"/><path d="M101.848 94.22H84.152a1.77 1.77 0 0 1-1.77-1.774c0-.981.79-1.774 1.77-1.774h17.696c.979 0 1.77.793 1.77 1.774a1.77 1.77 0 0 1-1.77 1.773z" fill="#000"/><path d="M93 103.087a1.77 1.77 0 0 1-1.77-1.774V83.578a1.77 1.77 0 1 1 3.54 0v17.735a1.77 1.77 0 0 1-1.77 1.774z" fill="#000"/></svg>