<svg width="113" height="113" fill="none" xmlns="http://www.w3.org/2000/svg"><path d="M77.688 49.438a7.063 7.063 0 1 0 0 14.125 7.063 7.063 0 0 0 0-14.126zm0 9.416a2.355 2.355 0 0 1-2.352-2.354 2.355 2.355 0 0 1 2.352-2.354 2.355 2.355 0 0 1 2.351 2.354 2.355 2.355 0 0 1-2.352 2.354zm-40.022-7.063c-.65 0-1.238.264-1.664.69l-4.709 4.709a2.357 2.357 0 0 0 3.33 3.331l4.709-4.71a2.356 2.356 0 0 0-1.666-4.02zm9.418 0c-.65 0-1.24.264-1.666.69l-4.707 4.709a2.355 2.355 0 0 0 3.328 3.331l4.709-4.71a2.355 2.355 0 0 0-1.664-4.02zm9.416 0c-.65 0-1.238.264-1.664.69l-4.709 4.709a2.355 2.355 0 0 0 3.33 3.331l4.707-4.71a2.355 2.355 0 0 0-1.664-4.02z" fill="#000"/><path d="M91.813 94.164V70.625c5.827 0 21.187-7.063 21.187-35.313C113 15.81 97.192 0 77.687 0c-9.697 0-18.48 3.91-24.863 10.239a23.445 23.445 0 0 0-15.158-5.53c-13 0-23.541 10.54-23.541 23.541 0 1.774.198 3.504.57 5.166C6.286 35.302 0 42.813 0 51.79c0 10.403 8.432 18.834 18.834 18.834h2.354v23.54h28.25v4.71H14.124V113h84.75V98.875H63.562v-4.71h28.25zm-4.711-28.25H25.896v-18.83h61.206v18.83zM29.676 42.375l7.063-4.709h39.52l7.063 4.709H29.676zm-8.488 23.54h-2.354c-7.788 0-14.125-6.336-14.125-14.124 0-3.274 1.086-6.345 3.143-8.883a14.17 14.17 0 0 1 7.873-4.899l4.592-1.03-1.028-4.592a19.02 19.02 0 0 1-.455-4.137c0-5.031 1.959-9.76 5.516-13.316a18.704 18.704 0 0 1 13.316-5.518 18.84 18.84 0 0 1 12.125 4.425l3.292 2.772 3.057-3.03c5.771-5.724 13.423-8.874 21.548-8.874 4.131 0 8.142.809 11.911 2.402a30.56 30.56 0 0 1 9.732 6.56 30.555 30.555 0 0 1 6.559 9.73 30.446 30.446 0 0 1 2.399 11.912c0 6.062-.755 11.431-2.248 15.959-1.214 3.66-2.897 6.763-5.014 9.214-1.628 1.89-3.535 3.397-5.511 4.363-1.614.79-2.97 1.065-3.704 1.065V42.375l-14.125-9.416H35.313l-14.126 9.416v23.54zm21.187 42.374H18.834v-4.703h23.541v4.703zm28.25-4.703h23.54v4.703h-23.54v-4.703zm-4.71 0v4.703H47.083v-4.703h7.062v-9.422h4.708v9.422h7.06zm-40.02-14.125V70.625h61.206v18.836H25.896z" fill="#000"/><path d="M77.688 72.977a7.065 7.065 0 0 0-7.063 7.062 7.06 7.06 0 0 0 7.063 7.063 7.06 7.06 0 0 0 7.062-7.063 7.065 7.065 0 0 0-7.063-7.062zm0 9.421a2.355 2.355 0 1 1 0-4.71 2.355 2.355 0 0 1 0 4.71zm-40.022-7.062a2.34 2.34 0 0 0-1.664.69l-4.707 4.703a2.355 2.355 0 1 0 3.328 3.331l4.709-4.71a2.34 2.34 0 0 0 .69-1.662c0-1.3-1.056-2.352-2.356-2.352zm9.418 0c-.65 0-1.24.262-1.666.69l-4.707 4.703a2.354 2.354 0 1 0 3.328 3.331l4.709-4.71a2.352 2.352 0 0 0-1.664-4.014zm9.416 0c-.65 0-1.24.262-1.666.69l-4.707 4.703a2.354 2.354 0 1 0 3.33 3.331l4.707-4.71a2.352 2.352 0 0 0-1.664-4.014z" fill="#000"/></svg>