<svg width="99" height="113" fill="none" xmlns="http://www.w3.org/2000/svg"><path d="M97.11 113H1.766a1.764 1.764 0 0 1-1.765-1.766v-56.5c0-.976.79-1.765 1.765-1.765.977 0 1.766.789 1.766 1.765v54.735h91.813V54.734c0-.976.79-1.765 1.765-1.765.977 0 1.766.789 1.766 1.765v56.5c0 .977-.789 1.766-1.766 1.766z" fill="#000"/><path d="M49.437 88.281c-.336 0-.676-.097-.978-.296L.787 56.203a1.765 1.765 0 1 1 1.96-2.938l47.672 31.782a1.765 1.765 0 0 1-.982 3.234z" fill="#000"/><path d="M49.44 88.281a1.765 1.765 0 0 1-.981-3.235l47.672-31.78a1.764 1.764 0 0 1 2.448.488 1.765 1.765 0 0 1-.489 2.45l-47.672 31.78c-.301.2-.643.297-.978.297z" fill="#000"/><path d="M97.109 113c-.336 0-.676-.097-.978-.297L53.753 84.452a1.766 1.766 0 0 1 1.96-2.938l42.377 28.251a1.766 1.766 0 0 1-.98 3.235zm-95.341 0a1.766 1.766 0 0 1-.981-3.235l42.375-28.25a1.763 1.763 0 0 1 2.449.49 1.765 1.765 0 0 1-.49 2.448l-42.374 28.25a1.77 1.77 0 0 1-.979.297zm95.341-56.5c-.336 0-.676-.097-.978-.297l-14.125-9.416a1.765 1.765 0 1 1 1.96-2.938l14.124 9.416a1.765 1.765 0 0 1-.981 3.235zm-95.341 0a1.765 1.765 0 0 1-.981-3.235l14.125-9.416a1.765 1.765 0 1 1 1.96 2.938L2.747 56.203a1.77 1.77 0 0 1-.979.297z" fill="#000"/><path d="M15.891 65.916a1.764 1.764 0 0 1-1.765-1.766V1.766c0-.977.79-1.766 1.765-1.766.977 0 1.766.789 1.766 1.766V64.15c0 .977-.789 1.766-1.766 1.766zm67.094 0a1.764 1.764 0 0 1-1.765-1.766V1.766C81.22.789 82.01 0 82.985 0c.977 0 1.766.789 1.766 1.766V64.15c0 .977-.789 1.766-1.766 1.766z" fill="#000"/><path d="M82.985 3.531H15.891a1.764 1.764 0 0 1-1.765-1.765c0-.977.79-1.766 1.765-1.766h67.094c.977 0 1.766.789 1.766 1.766 0 .976-.789 1.765-1.766 1.765zm-37.08 44.141c-.369 0-.74-.115-1.058-.354a1.762 1.762 0 0 1-.352-2.47l10.594-14.125a1.763 1.763 0 0 1 2.47-.352c.78.584.939 1.691.353 2.47L47.318 46.966a1.756 1.756 0 0 1-1.413.706z" fill="#000"/><path d="M67.096 47.672a1.763 1.763 0 0 1-1.414-.706L55.09 32.84a1.762 1.762 0 0 1 .352-2.47 1.762 1.762 0 0 1 2.471.352l10.594 14.125a1.763 1.763 0 0 1-1.41 2.824zm-31.784 0a1.766 1.766 0 0 1-1.377-2.87l7.062-8.827a1.767 1.767 0 0 1 2.758 2.207l-7.062 8.828a1.77 1.77 0 0 1-1.381.662z" fill="#000"/><path d="M47.617 45.392a1.769 1.769 0 0 1-1.381-.662l-5.239-6.548a1.768 1.768 0 0 1 .275-2.482 1.77 1.77 0 0 1 2.483.275l5.238 6.548c.61.763.484 1.874-.275 2.483a1.756 1.756 0 0 1-1.101.386z" fill="#000"/><path d="M70.626 47.672H28.25a1.764 1.764 0 0 1-1.766-1.766V14.125c0-.977.79-1.766 1.766-1.766h42.375c.977 0 1.765.79 1.765 1.766v31.781c0 .977-.788 1.766-1.765 1.766zm-40.61-3.531H68.86V15.89H30.016v28.25zM70.626 56.5H28.25a1.764 1.764 0 0 1-1.766-1.766c0-.976.79-1.765 1.766-1.765h42.375c.977 0 1.765.789 1.765 1.765 0 .977-.788 1.766-1.765 1.766zm0 7.063H28.25a1.764 1.764 0 0 1-1.766-1.766c0-.977.79-1.766 1.766-1.766h42.375c.977 0 1.765.79 1.765 1.766 0 .977-.788 1.766-1.765 1.766zm-8.828 7.062h-24.72a1.764 1.764 0 0 1-1.765-1.766c0-.976.79-1.765 1.766-1.765h24.719c.977 0 1.765.789 1.765 1.765 0 .977-.788 1.766-1.765 1.766z" fill="#000"/><path d="M37.962 28.25a4.418 4.418 0 0 1-4.414-4.414 4.418 4.418 0 0 1 4.414-4.414 4.418 4.418 0 0 1 4.414 4.414 4.418 4.418 0 0 1-4.414 4.414zm0-5.297a.886.886 0 0 0-.883.883c0 .485.397.883.883.883a.886.886 0 0 0 .883-.883.886.886 0 0 0-.883-.883z" fill="#000"/></svg>