<svg width="113" height="138" fill="none" xmlns="http://www.w3.org/2000/svg"><path d="M35.767 81.046H4.329L8.456 4.221h55.326l2.136 39.78a2.108 2.108 0 1 0 4.207-.227L67.882 1.997A2.108 2.108 0 0 0 65.778 0H6.46C5.34 0 4.417.877 4.357 1.997L.003 83.043a2.105 2.105 0 0 0 2.104 2.224h33.66a2.108 2.108 0 0 0 2.106-2.11c0-1.166-.942-2.11-2.106-2.11z" fill="#fff"/><path d="M20.078 7.844a2.109 2.109 0 0 0-2.107 2.11v9.886c0 9.543 7.75 17.308 17.274 17.308 9.525 0 17.274-7.765 17.274-17.308V9.955a2.108 2.108 0 0 0-2.106-2.111 2.109 2.109 0 0 0-2.107 2.11v9.886c0 7.215-5.859 13.086-13.06 13.086-7.203 0-13.062-5.87-13.062-13.086V9.955a2.108 2.108 0 0 0-2.106-2.111zm90.816 40.7h-5.847l-1.236-23.329a2.108 2.108 0 0 0-2.103-1.999h-3.37v-2.151c0-4.167-3.384-7.558-7.543-7.558-4.159 0-7.543 3.39-7.543 7.558v2.151h-2.754a2.11 2.11 0 0 0-2.104 2l-1.235 23.328H42.643a2.108 2.108 0 0 0-2.107 2.11v41.79c0 1.166.943 2.111 2.107 2.111h68.25a2.109 2.109 0 0 0 2.107-2.11v-41.79a2.108 2.108 0 0 0-2.106-2.111zM87.465 21.065a3.336 3.336 0 0 1 3.33-3.336 3.336 3.336 0 0 1 3.33 3.336v2.151h-6.66v-2.151zm-4.97 6.373H99.71l1.118 21.106h-19.45l1.117-21.106zm26.292 25.327v6.332H44.75v-6.332h64.037zM44.75 90.335V63.318h64.037v27.015H44.75zm-37.249 24.79l5.681 13.594 5.702-13.594h1.735v15.403h-1.3v-6.707l.105-6.877-5.734 13.584h-1.005l-5.713-13.531.106 6.781v6.75H5.777v-15.403h1.724zm23.951 15.403c-.127-.36-.208-.892-.243-1.598a4.442 4.442 0 0 1-1.703 1.344c-.684.31-1.41.465-2.18.465-1.1 0-1.992-.306-2.676-.92-.677-.614-1.015-1.389-1.015-2.327 0-1.115.461-1.996 1.385-2.645.931-.649 2.226-.973 3.883-.973h2.296v-1.302c0-.818-.254-1.46-.762-1.925-.5-.473-1.234-.709-2.2-.709-.882 0-1.612.226-2.19.677-.579.452-.868.995-.868 1.629l-1.27-.01c0-.91.424-1.696 1.27-2.359.846-.67 1.887-1.005 3.12-1.005 1.277 0 2.282.321 3.016.962.74.635 1.121 1.524 1.142 2.666v5.417c0 1.107.117 1.936.35 2.486v.127h-1.355zm-3.977-.91c.846 0 1.6-.205 2.264-.614a3.601 3.601 0 0 0 1.46-1.639v-2.518h-2.264c-1.263.014-2.25.247-2.963.698-.712.444-1.068 1.058-1.068 1.841 0 .642.236 1.174.709 1.597.48.423 1.1.635 1.862.635zm13.657-9.458a4.762 4.762 0 0 0-.857-.074c-.79 0-1.46.222-2.01.667-.543.437-.93 1.075-1.163 1.915v7.86h-1.26v-11.447h1.238l.022 1.82c.67-1.354 1.745-2.031 3.226-2.031.353 0 .631.046.836.137l-.032 1.153zm4.73 4.602l-1.45 1.397v4.369h-1.27v-16.25h1.27v10.4l1.195-1.291 4.38-4.306h1.597l-4.856 4.824 5.28 6.623h-1.513l-4.634-5.766zm9.87-8.611v2.93H58.1v1.037h-2.37v7.627c0 .635.113 1.108.339 1.418.233.31.617.466 1.153.466.212 0 .554-.036 1.026-.106l.053 1.037c-.331.119-.783.179-1.354.179-.868 0-1.499-.25-1.894-.751-.395-.508-.592-1.252-.592-2.232v-7.638h-2.105v-1.037h2.105v-2.93h1.27zm6.146 2.93l.042 1.862c.423-.691.952-1.209 1.587-1.555a4.347 4.347 0 0 1 2.116-.518c1.805 0 2.951.74 3.438 2.221a4.254 4.254 0 0 1 1.64-1.639 4.509 4.509 0 0 1 2.264-.582c2.454 0 3.706 1.34 3.755 4.02v7.638h-1.27v-7.543c-.006-1.023-.228-1.781-.666-2.275-.43-.493-1.135-.74-2.116-.74-.91.014-1.678.31-2.306.889-.627.571-.977 1.269-1.047 2.094v7.575h-1.27v-7.638c-.007-.981-.24-1.711-.698-2.19-.451-.487-1.15-.73-2.094-.73-.797 0-1.482.229-2.053.688-.571.451-.994 1.124-1.27 2.02v7.85h-1.269v-11.447h1.217zm25.284 11.447c-.127-.36-.208-.892-.244-1.598a4.443 4.443 0 0 1-1.703 1.344c-.684.31-1.41.465-2.18.465-1.1 0-1.992-.306-2.676-.92-.677-.614-1.015-1.389-1.015-2.327 0-1.115.462-1.996 1.386-2.645.93-.649 2.225-.973 3.882-.973h2.296v-1.302c0-.818-.254-1.46-.762-1.925-.5-.473-1.234-.709-2.2-.709-.882 0-1.612.226-2.19.677-.579.452-.868.995-.868 1.629l-1.27-.01c0-.91.424-1.696 1.27-2.359.847-.67 1.887-1.005 3.121-1.005 1.277 0 2.282.321 3.015.962.74.635 1.121 1.524 1.143 2.666v5.417c0 1.107.116 1.936.349 2.486v.127h-1.354zm-3.978-.91c.846 0 1.6-.205 2.264-.614a3.601 3.601 0 0 0 1.46-1.639v-2.518h-2.264c-1.263.014-2.25.247-2.962.698-.713.444-1.069 1.058-1.069 1.841 0 .642.237 1.174.709 1.597.48.423 1.1.635 1.862.635zm9.574-10.537l.042 1.957c.43-.705.966-1.241 1.608-1.608a4.156 4.156 0 0 1 2.127-.56c1.227 0 2.14.345 2.74 1.036.6.692.902 1.728.909 3.111v7.511h-1.258v-7.522c-.008-1.023-.226-1.784-.656-2.285-.423-.501-1.104-.751-2.042-.751a3.21 3.21 0 0 0-2.084.74c-.6.487-1.044 1.146-1.333 1.979v7.839h-1.259v-11.447h1.206z" fill="#fff"/></svg>