<svg width="85" height="113" fill="none" xmlns="http://www.w3.org/2000/svg"><path d="M82.806 0H1.762C.788 0 0 .79 0 1.766v109.468C0 112.211.788 113 1.762 113h81.044c.974 0 1.762-.789 1.762-1.766V1.766C84.568.789 83.78 0 82.806 0zm-1.762 109.469H3.524V3.531h77.52V109.47z" fill="#000"/><path d="M77.52 5.297c-.974 0-1.761.79-1.761 1.766v97.109H8.809V7.062a1.762 1.762 0 1 0-3.524 0v98.876c0 .976.788 1.765 1.762 1.765H77.52c.975 0 1.762-.789 1.762-1.765V7.062c0-.976-.787-1.765-1.762-1.765z" fill="#000"/><path d="M31.526 8.037L28.003.975a1.764 1.764 0 0 0-2.365-.79 1.768 1.768 0 0 0-.788 2.37l3.524 7.062a1.763 1.763 0 0 0 2.365.79 1.768 1.768 0 0 0 .787-2.37zM58.93.187a1.765 1.765 0 0 0-2.365.79l-3.523 7.062a1.763 1.763 0 1 0 3.152 1.58l3.523-7.062a1.768 1.768 0 0 0-.787-2.37z" fill="#000"/><path d="M54.617 7.063H29.95c-.974 0-1.762.789-1.762 1.765 0 .977.788 1.766 1.762 1.766h24.666c.974 0 1.762-.79 1.762-1.766s-.788-1.765-1.762-1.765z" fill="#000"/><path d="M77.52 5.297H55.498c-.975 0-1.762.79-1.762 1.766s.787 1.765 1.762 1.765H77.52c.975 0 1.762-.79 1.762-1.765 0-.977-.787-1.766-1.762-1.766zm-48.45 0H7.047c-.974 0-1.762.79-1.762 1.766s.788 1.765 1.762 1.765H29.07c.974 0 1.762-.79 1.762-1.765 0-.977-.788-1.766-1.762-1.766zm-3.132 25.266l-1.676-1.766a1.766 1.766 0 0 0-2.491-.061 1.769 1.769 0 0 0-.062 2.496l1.676 1.766c.347.365.81.549 1.277.549a1.768 1.768 0 0 0 1.276-2.984z" fill="#000"/><path d="M29.435 26.998a1.757 1.757 0 0 0-2.491 0l-3.528 3.535a1.766 1.766 0 0 0 1.246 3.014c.451 0 .902-.173 1.246-.517l3.527-3.535a1.766 1.766 0 0 0 0-2.497z" fill="#000"/><path d="M25.547 17.656c-6.315 0-11.452 5.149-11.452 11.477s5.137 11.476 11.452 11.476c6.314 0 11.451-5.148 11.451-11.476 0-6.328-5.137-11.477-11.451-11.477zm0 19.422c-4.372 0-7.929-3.565-7.929-7.945 0-4.38 3.557-7.945 7.929-7.945 4.37 0 7.928 3.564 7.928 7.945 0 4.38-3.557 7.945-7.928 7.945zm43.164-14.125H44.046c-.975 0-1.762.79-1.762 1.766s.787 1.765 1.762 1.765H68.71c.975 0 1.762-.789 1.762-1.765 0-.977-.787-1.766-1.762-1.766zm-12.332 7.063H44.046c-.975 0-1.762.789-1.762 1.765 0 .977.787 1.766 1.762 1.766h12.333c.974 0 1.761-.79 1.761-1.766s-.787-1.765-1.761-1.765zM25.938 87.063l-1.676-1.766a1.766 1.766 0 0 0-2.491-.061 1.769 1.769 0 0 0-.062 2.496l1.676 1.766c.347.365.81.549 1.277.549a1.768 1.768 0 0 0 1.276-2.984z" fill="#000"/><path d="M29.435 83.498a1.757 1.757 0 0 0-2.491 0l-3.528 3.535a1.766 1.766 0 0 0 1.246 3.014c.451 0 .902-.173 1.246-.517l3.527-3.535a1.766 1.766 0 0 0 0-2.497z" fill="#000"/><path d="M25.547 74.156c-6.315 0-11.452 5.149-11.452 11.477s5.137 11.476 11.452 11.476c6.314 0 11.451-5.148 11.451-11.476 0-6.328-5.137-11.477-11.451-11.477zm0 19.422c-4.372 0-7.929-3.565-7.929-7.945 0-4.38 3.557-7.945 7.929-7.945 4.37 0 7.928 3.564 7.928 7.945 0 4.38-3.557 7.945-7.928 7.945zm43.164-14.125H44.046c-.975 0-1.762.79-1.762 1.766s.787 1.765 1.762 1.765H68.71c.975 0 1.762-.789 1.762-1.765 0-.977-.787-1.766-1.762-1.766zm-12.332 7.063H44.046c-.975 0-1.762.789-1.762 1.765 0 .977.787 1.766 1.762 1.766h12.333c.974 0 1.761-.79 1.761-1.766s-.787-1.765-1.761-1.765zm-26.944-33.03a1.757 1.757 0 0 0-2.491 0l-5.29 5.297a1.766 1.766 0 0 0 1.246 3.014c.451 0 .902-.173 1.246-.517l5.289-5.297a1.766 1.766 0 0 0 0-2.497z" fill="#000"/><path d="M29.435 58.783l-5.29-5.297a1.757 1.757 0 0 0-2.49 0 1.766 1.766 0 0 0 0 2.497l5.289 5.297a1.755 1.755 0 0 0 2.49 0 1.766 1.766 0 0 0 0-2.497z" fill="#000"/><path d="M25.547 45.906c-6.315 0-11.452 5.149-11.452 11.477s5.137 11.476 11.452 11.476c6.314 0 11.451-5.148 11.451-11.476 0-6.328-5.137-11.477-11.451-11.477zm0 19.422c-4.372 0-7.929-3.565-7.929-7.945 0-4.38 3.557-7.946 7.929-7.946 4.37 0 7.928 3.565 7.928 7.946 0 4.38-3.557 7.945-7.928 7.945zm43.164-14.125H44.046c-.975 0-1.762.79-1.762 1.766s.787 1.765 1.762 1.765H68.71c.975 0 1.762-.789 1.762-1.765 0-.977-.787-1.766-1.762-1.766zm-12.332 7.063H44.046c-.975 0-1.762.789-1.762 1.765 0 .977.787 1.766 1.762 1.766h12.333c.974 0 1.761-.79 1.761-1.766s-.787-1.765-1.761-1.765z" fill="#000"/></svg>