<svg width="104" height="113" fill="none" xmlns="http://www.w3.org/2000/svg"><path d="M53.15 70.59a2.353 2.353 0 0 0-2.324 2.383c.053 4.449.401 7.76 1.095 10.415a2.358 2.358 0 0 0 2.276 1.762c.198 0 .398-.028.598-.08a2.349 2.349 0 0 0 1.68-2.872c-.587-2.245-.894-5.28-.942-9.28a2.356 2.356 0 0 0-2.383-2.328zm.622-19.834a2.353 2.353 0 0 0-2.395 2.312c-.048 2.709-.162 5.525-.272 8.25l-.066 1.617a2.355 2.355 0 0 0 2.26 2.444h.094a2.35 2.35 0 0 0 2.35-2.258l.066-1.614c.113-2.748.227-5.593.275-8.356a2.352 2.352 0 0 0-2.312-2.395zm-2.658-7.343a2.353 2.353 0 0 0 2.564 2.124 2.354 2.354 0 0 0 2.124-2.563c-.41-4.398-1.266-7.81-2.607-10.431a2.353 2.353 0 1 0-4.19 2.145c1.064 2.08 1.753 4.933 2.109 8.724zm24.244 38.081a2.345 2.345 0 0 0 3.248-.714c1.704-2.655 3.25-5.796 4.587-9.331a2.357 2.357 0 0 0-1.366-3.038 2.358 2.358 0 0 0-3.038 1.369c-1.224 3.231-2.617 6.08-4.145 8.462a2.355 2.355 0 0 0 .714 3.252zM23.617 33.238c-2.44 2.288-4.62 5.109-6.476 8.381a2.352 2.352 0 0 0 .884 3.21 2.352 2.352 0 0 0 3.209-.885c1.624-2.861 3.51-5.308 5.604-7.274a2.354 2.354 0 1 0-3.22-3.432z" fill="#000"/><path d="M101.877 9.507L68.917.09a2.344 2.344 0 0 0-1.29.001L67.623.09l-32.31 9.231L3 .091a2.352 2.352 0 0 0-3 2.264v98.875c0 1.052.697 1.973 1.707 2.263l32.959 9.417h.012a2.307 2.307 0 0 0 1.281 0l32.31-9.231 32.312 9.231a2.34 2.34 0 0 0 2.066-.386 2.35 2.35 0 0 0 .934-1.879V11.771c0-1.05-.697-1.975-1.704-2.264zm-68.92 98.017l-28.25-8.07V5.475l28.25 8.072V27.47c-.059.022-.119.041-.179.064a2.356 2.356 0 0 0-1.403 3.019 2.35 2.35 0 0 0 1.582 1.459v75.512zm32.96-21.305a12.595 12.595 0 0 1-4.712.886 6.84 6.84 0 0 1-.455-.017 2.353 2.353 0 1 0-.365 4.693c.269.02.545.031.82.031 1.622 0 3.194-.214 4.711-.638v8.28l-28.25 8.07V31.05a24.549 24.549 0 0 1 4.71-.445c.263 0 .524.008.774.027a2.353 2.353 0 1 0 .353-4.695 15.117 15.117 0 0 0-1.127-.041c-1.611 0-3.184.125-4.71.372V13.546l28.25-8.07v80.743zm32.96 21.305l-28.25-8.07V89.081c.207-.128.41-.262.614-.4a2.353 2.353 0 0 0-.614-4.193V5.475l28.25 8.072v93.977z" fill="#000"/><path d="M81.42 56.501l-3.04 3.044a2.35 2.35 0 0 0 0 3.327 2.35 2.35 0 0 0 3.328 0l3.044-3.043 3.041 3.043a2.358 2.358 0 0 0 3.331 0c.918-.92.918-2.41 0-3.328l-3.044-3.043 3.045-3.045a2.354 2.354 0 1 0-3.331-3.328l-3.042 3.044-3.045-3.043a2.35 2.35 0 0 0-3.328 0 2.35 2.35 0 0 0 0 3.327l3.041 3.045zm-67.295-7.062A7.07 7.07 0 0 0 7.062 56.5c0 3.892 3.168 7.061 7.063 7.061 3.893 0 7.063-3.17 7.063-7.06 0-3.896-3.17-7.063-7.063-7.063zm0 9.416A2.357 2.357 0 0 1 11.77 56.5a2.358 2.358 0 0 1 2.355-2.355 2.358 2.358 0 0 1 2.354 2.355 2.356 2.356 0 0 1-2.354 2.354z" fill="#000"/></svg>